<?xml version="1.0" encoding="utf-8"?>
<!-- Generator: Adobe Illustrator 22.1.0, SVG Export Plug-In . SVG Version: 6.00 Build 0)  -->
<svg version="1.1" id="Слой_1" xmlns="http://www.w3.org/2000/svg" xmlns:xlink="http://www.w3.org/1999/xlink" x="0px" y="0px"
	 viewBox="0 0 2100 1000" style="enable-background:new 0 0 2100 1000;" xml:space="preserve">
<style type="text/css">
	.st0{fill:url(#SVGID_1_);}
	.st1{opacity:0.19;}
	.st2{fill:#B9B9B9;}
</style>
<linearGradient id="SVGID_1_" gradientUnits="userSpaceOnUse" x1="1050" y1="1416" x2="1050" y2="416" gradientTransform="matrix(1 0 0 -1 0 1416)">
	<stop  offset="0" style="stop-color:#7E7E7E"/>
	<stop  offset="1" style="stop-color:#000000"/>
</linearGradient>
<rect class="st0" width="2100" height="1000"/>
<title>footer-fon</title>
<g class="st1">
	<path class="st2" d="M1050,380.4L1050,380.4C505.2,442.6-39.4,504.8-584.1,567c-141.6,16.2-283.2,32.3-424.9,48.5
		c-0.1,0-0.2,0-0.4,0.1c-0.1,0.1-0.1,0.2-0.1,0.4c0,0.3,0.2,0.5,0.5,0.5c549.1,0,1098.1,0,1647.2,0s1098.1,0,1647.2,0
		c274.5,0,549.1,0,823.6,0c0.3,0,0.5-0.2,0.5-0.5c0-0.1-0.1-0.3-0.1-0.4c-0.1-0.1-0.2-0.1-0.4-0.1
		c-544.7-62.2-1089.4-124.4-1634.1-186.6c-141.6-16.2-283.2-32.3-424.7-48.5C1050.1,380.4,1050.1,380.4,1050,380.4L1050,380.4
		L1050,380.4L1050,380.4z M625.1,429.9c141.6-16.2,283.2-32.4,424.9-48.5c544.7,62.2,1089.4,124.4,1634.1,186.6
		c138.7,15.8,277.4,31.7,416.1,47.5c-546.2,0-1092.3,0-1638.4,0c-549.1,0-1098.1,0-1647.2,0c-271.6,0-543.2,0-814.8,0
		C-458.5,553.7,83.3,491.8,625.1,429.9L625.1,429.9L625.1,429.9z"/>
	<path class="st2" d="M1050,351C1050,351,1049.9,351,1050,351C1049.9,351,1049.9,351,1050,351C617.6,428.2,185.2,505.3-247.1,582.4
		c-116.7,20.8-233.4,41.7-350.2,62.5c-0.2,0-0.4,0.3-0.4,0.5c0,0.3,0.2,0.5,0.5,0.5c439.2,0,878.5,0,1317.7,0s878.5,0,1317.7,0
		c219.6,0,439.2,0,658.9,0c0.2,0,0.4-0.2,0.5-0.4s-0.1-0.6-0.3-0.6c-432.3-77.1-864.6-154.3-1297-231.4
		C1283.6,392.7,1166.8,371.8,1050,351C1050.1,351,1050.1,351,1050,351C1050.1,351,1050,351,1050,351L1050,351L1050,351L1050,351z
		 M699.9,414.5c116.7-20.8,233.4-41.6,350.1-62.5c432.3,77.1,864.6,154.3,1296.9,231.4c114.9,20.5,229.8,41,344.7,61.5
		c-437.4,0-874.7,0-1312.1,0c-439.2,0-878.5,0-1317.7,0c-217.7,0-435.5,0-653.2,0C-161,568.1,269.4,491.3,699.9,414.5L699.9,414.5
		L699.9,414.5z"/>
	<path class="st2" d="M1050,319.8L1050,319.8C700,411.6,350.2,503.3,0.4,595c-103.2,27-206.4,54.1-309.6,81.1
		c-0.2,0.1-0.4,0.3-0.4,0.5c0,0.3,0.2,0.5,0.5,0.5c362.4,0,724.8,0,1087.3,0c362.4,0,724.8,0,1087.3,0c181.2,0,362.4,0,543.6,0
		c0.2,0,0.4-0.2,0.5-0.4c0.1-0.3-0.1-0.5-0.3-0.6c-349.8-91.7-699.7-183.4-1049.5-275.1c-103.2-27.1-206.4-54.1-309.6-81.2
		C1050.1,319.8,1050,319.8,1050,319.8L1050,319.8L1050,319.8L1050,319.8z M740.5,402c103.2-27,206.3-54.1,309.5-81.1
		c349.8,91.7,699.6,183.4,1049.3,275.1c101.9,26.7,203.9,53.4,305.8,80.2c-361.1,0-722.3,0-1083.4,0c-362.4,0-724.8,0-1087.3,0
		c-179.9,0-359.8,0-539.7,0C43.4,584.7,392,493.3,740.5,402L740.5,402L740.5,402z"/>
	<path class="st2" d="M1050,288.6c-0.1,0-0.1,0-0.2,0.1C759.9,393.6,470.1,498.5,180.3,603.4C84.6,638-11,672.6-106.7,707.3
		c-0.2,0.1-0.4,0.2-0.4,0.5s0.2,0.5,0.5,0.5c308.4,0,616.8,0,925.2,0s616.8,0,925.2,0c154.2,0,308.4,0,462.6,0
		c0.2,0,0.4-0.2,0.5-0.4c0.1-0.3-0.1-0.5-0.4-0.6c-289.9-104.9-579.7-209.8-869.6-314.8c-95.6-34.6-191.3-69.2-286.9-103.8
		C1050.1,288.7,1050.1,288.6,1050,288.6L1050,288.6L1050,288.6L1050,288.6z M763.2,393.5c95.6-34.6,191.2-69.2,286.8-103.8
		c289.8,104.9,579.6,209.8,869.5,314.7c94.8,34.3,189.5,68.6,284.3,102.9c-307.5,0-614.9,0-922.4,0c-308.4,0-616.8,0-925.2,0
		c-153.3,0-306.5,0-459.8,0C185.3,602.7,474.2,498.1,763.2,393.5L763.2,393.5L763.2,393.5z"/>
	<path class="st2" d="M1050,256.2L1050,256.2h-0.2l0,0c-240.1,116-480.2,231.9-720.3,347.9c-93.6,45.2-187.3,90.4-280.9,135.7
		c-0.2,0.1-0.3,0.4-0.2,0.6c0.1,0.2,0.3,0.4,0.5,0.4c267,0,534,0,801,0s534,0,801,0c133.5,0,267,0,400.5,0c0.2,0,0.4-0.2,0.5-0.4
		s0-0.5-0.2-0.6c-240.1-116-480.2-231.9-720.3-347.9c-93.7-45.2-187.3-90.4-280.9-135.7l0,0h-0.1
		C1050.1,256.2,1050.1,256.2,1050,256.2L1050,256.2L1050,256.2L1050,256.2z M769.3,392.8c93.6-45.2,187.1-90.4,280.7-135.6
		C1290,373.1,1530.1,489,1770.1,605c93,44.9,186,89.8,279,134.7c-266.3,0-532.5,0-798.8,0c-267,0-534,0-801,0
		c-132.8,0-265.5,0-398.3,0C290.4,624.1,529.9,508.4,769.3,392.8L769.3,392.8L769.3,392.8z"/>
	<path class="st2" d="M1050,220.6c-0.1,0-0.2,0-0.3,0.1C853.8,345.2,657.9,469.7,462,594.2C367,654.6,272,715,177,775.4
		c-0.2,0.1-0.3,0.3-0.2,0.6c0.1,0.2,0.3,0.4,0.5,0.4c232.3,0,464.5,0,696.8,0s464.6,0,696.8,0c117.3,0,234.6,0,351.9,0
		c0.2,0,0.4-0.2,0.5-0.4s0-0.4-0.2-0.6c-195.9-124.5-391.8-249-587.7-373.6c-95-60.4-190-120.8-285-181.2
		C1050.2,220.6,1050.1,220.6,1050,220.6L1050,220.6L1050,220.6L1050,220.6z M765.2,402.7c94.9-60.3,189.9-120.7,284.8-181
		c195.8,124.5,391.7,248.9,587.5,373.4c94.5,60.1,189.1,120.2,283.6,180.2c-231.7,0-463.4,0-695.1,0c-232.3,0-464.6,0-696.8,0
		c-116.7,0-233.5,0-350.2,0C374.4,651.1,569.8,526.9,765.2,402.7L765.2,402.7L765.2,402.7z"/>
	<path class="st2" d="M1125.4,849.5c0,0.3,0.2,0.5,0.5,0.5s0.5-0.2,0.5-0.5s-0.2-0.5-0.5-0.5S1125.4,849.2,1125.4,849.5
		L1125.4,849.5L1125.4,849.5z"/>
	<path class="st2" d="M1050,179.8L1050,179.8L1050,179.8L1050,179.8C1049.9,179.8,1049.9,179.8,1050,179.8c-0.2,0-0.3,0.1-0.4,0.1
		C894.1,310.1,738.5,440.2,582.9,570.3c-98,82-196,164-294,246c-0.1,0.1-0.2,0.3-0.1,0.5s0.3,0.4,0.5,0.4c202.9,0,405.8,0,608.6,0
		c202.9,0,405.8,0,608.6,0c101.4,0,202.9,0,304.3,0c0.2,0,0.3-0.1,0.4-0.2c0.1-0.2,0.1-0.5-0.1-0.6
		C1655.6,686.2,1500,556,1344.4,425.9c-98-82-196-164-294-246C1050.3,179.8,1050.2,179.8,1050,179.8
		C1050.1,179.8,1050.1,179.8,1050,179.8L1050,179.8L1050,179.8L1050,179.8L1050,179.8L1050,179.8z M756.3,426.6
		c97.9-81.9,195.8-163.8,293.7-245.7C1205.5,311,1360.9,441,1516.4,571c97.7,81.7,195.3,163.4,293,245.1c-202.4,0-404.8,0-607.3,0
		c-202.9,0-405.8,0-608.6,0c-101,0-202,0-302.9,0C445.8,686.3,601.1,556.4,756.3,426.6L756.3,426.6L756.3,426.6z"/>
	<path class="st2" d="M1050,132.9c-0.1,0-0.3,0-0.4,0.1l0,0C930.8,263.9,811.9,394.8,693.1,525.6
		c-102.2,112.5-204.4,225-306.6,337.6c-0.1,0.1-0.2,0.3-0.1,0.5s0.3,0.4,0.5,0.4c176.8,0,353.7,0,530.5,0s353.7,0,530.5,0
		c88.4,0,176.8,0,265.3,0c0.2,0,0.3-0.1,0.4-0.2c0.1-0.2,0.1-0.4-0.1-0.6c-118.8-130.8-237.7-261.7-356.5-392.5
		c-102.2-112.5-204.4-225-306.6-337.5l0,0C1050.3,133,1050.1,132.9,1050,132.9L1050,132.9L1050,132.9L1050,132.9z M743.7,471.3
		C845.8,358.9,947.9,246.6,1050,134.2c118.7,130.7,237.5,261.4,356.2,392.1C1508.1,638.5,1610.1,750.8,1712,863
		c-176.5,0-352.9,0-529.4,0c-176.8,0-353.7,0-530.5,0c-88,0-176.1,0-264.1,0C506.5,732.4,625.1,601.9,743.7,471.3L743.7,471.3
		L743.7,471.3z"/>
	<path class="st2" d="M1050,79.2c-0.1,0-0.2,0-0.3,0.1c-0.1,0-0.1,0.1-0.1,0.1l0,0C962.2,206,874.8,332.7,787.4,459.3
		S612.6,712.5,525.2,839.1c-17.9,26-35.8,51.9-53.7,77.9c-0.1,0.1-0.1,0.4,0,0.5c0.1,0.2,0.3,0.2,0.4,0.2c153.8,0,307.7,0,461.5,0
		s307.7,0,461.5,0c77.7,0,155.4,0,233.1,0c0.2,0,0.3-0.1,0.4-0.2c0.1-0.1,0.1-0.4,0-0.5c-87.4-126.6-174.8-253.2-262.2-379.8
		S1191.4,284,1104,157.4c-17.9-26-35.8-51.9-53.7-77.9l0,0c0-0.1-0.1-0.1-0.1-0.1C1050.2,79.2,1050.1,79.2,1050,79.2L1050,79.2
		L1050,79.2L1050,79.2z M734.5,537.7C821.9,411,909.3,284.4,996.7,157.8c17.8-25.7,35.5-51.5,53.3-77.2
		c87.2,126.4,174.5,252.8,261.7,379.2c87.4,126.6,174.8,253.2,262.2,379.8c17.7,25.7,35.5,51.4,53.2,77.1c-153.5,0-307.1,0-460.6,0
		c-153.8,0-307.7,0-461.5,0c-77.4,0-154.7,0-232.1,0C560.1,790.4,647.3,664,734.5,537.7L734.5,537.7L734.5,537.7z"/>
	<path class="st2" d="M1050,10.9c-0.1,0-0.1,0-0.2,0l0,0l0,0c-0.1,0-0.2,0.1-0.3,0.2C989.4,129,929.3,246.9,869.2,364.7
		C809,482.6,748.9,600.5,688.8,718.3c-45.4,89-90.8,178-136.2,267c-0.1,0.2-0.1,0.3,0,0.5s0.3,0.2,0.4,0.2c132.3,0,264.6,0,396.8,0
		c132.3,0,264.5,0,396.8,0c66.8,0,133.6,0,200.4,0c0.2,0,0.3-0.1,0.4-0.2c0.1-0.2,0.1-0.3,0-0.5
		c-60.1-117.9-120.3-235.7-180.4-353.6S1246.7,396,1186.6,278.1c-45.4-89-90.8-178-136.2-267C1050.3,11,1050.3,10.9,1050,10.9
		C1050.1,10.9,1050.1,10.9,1050,10.9L1050,10.9L1050,10.9L1050,10.9z M733.8,632.2C794,514.3,854.1,396.5,914.2,278.6
		c45.3-88.7,90.5-177.4,135.8-266.1c60,117.6,120,235.2,180,352.7c60.1,117.9,120.3,235.7,180.4,353.6
		c45.3,88.7,90.5,177.5,135.8,266.2c-132,0-264,0-396,0c-132.3,0-264.6,0-396.8,0c-66.5,0-133.1,0-199.6,0
		C613.8,867.4,673.8,749.8,733.8,632.2L733.8,632.2L733.8,632.2z"/>
	<path class="st2" d="M1049.9-74.4C1049.8-74.4,1049.8-74.4,1049.9-74.4C1049.8-74.4,1049.8-74.4,1049.9-74.4l-0.2,0.2
		c-0.1,0.1-0.1,0.2-0.1,0.2C996.7,68.9,943.9,211.8,891.1,354.7c-52.8,142.9-105.6,285.8-158.4,428.7
		c-35.4,95.8-70.8,191.5-106.1,287.2c0,0.1,0,0.3,0.1,0.4c0.1,0.2,0.3,0.2,0.4,0.2c152.4,0,304.8,0,457.3,0c129.6,0,259.1,0,388.7,0
		c0.1,0,0.3-0.1,0.4-0.1c0.1-0.1,0.2-0.3,0.1-0.5c-53-142.8-105.8-285.7-158.6-428.6s-105.6-285.8-158.4-428.7
		c-35.4-95.7-70.7-191.5-106.1-287.2c0-0.1-0.1-0.2-0.1-0.2l-0.1-0.1C1050.2-74.2,1050.1-74.3,1049.9-74.4
		C1050-74.4,1049.9-74.4,1049.9-74.4L1049.9-74.4L1049.9-74.4z M785.9,642.2c52.8-142.9,105.6-285.8,158.4-428.7
		c35.2-95.3,70.4-190.6,105.7-285.9c52.6,142.5,105.3,285,157.9,427.4c52.8,142.9,105.6,285.8,158.4,428.7
		c35.3,95.5,70.6,191.1,105.9,286.6c-152.2,0-304.4,0-456.5,0c-129.3,0-258.6,0-388,0C680.5,927.6,733.2,784.9,785.9,642.2
		L785.9,642.2L785.9,642.2z"/>
	<path class="st2" d="M1089.8,1449.9c0,0.3,0.2,0.5,0.5,0.5s0.5-0.2,0.5-0.5s-0.2-0.5-0.5-0.5S1089.8,1449.6,1089.8,1449.9
		L1089.8,1449.9L1089.8,1449.9z"/>
	<path class="st2" d="M1511.3,985.4c-316.1,0-632.3,0-948.4,0c-211,0-422,0-632.9,0c-0.3,0-0.5,0.2-0.5,0.5s0.2,0.5,0.5,0.5
		c299,0,598.1,0,897.1,0c318.8,0,637.7,0,956.5,0c223.8,0,447.7,0,671.5,0c0.3,0,0.5-0.2,0.5-0.5s-0.2-0.5-0.5-0.5
		C2140.5,985.4,1825.9,985.4,1511.3,985.4L1511.3,985.4L1511.3,985.4z"/>
	<path class="st2" d="M1449.8,916.1c-296.9,0-593.7,0-890.6,0c-210.2,0-420.4,0-630.5,0c-0.3,0-0.5,0.2-0.5,0.5s0.2,0.5,0.5,0.5
		c283.2,0,566.4,0,849.6,0c297.2,0,594.3,0,891.5,0c221.2,0,442.5,0,663.7,0c0.3,0,0.5-0.2,0.5-0.5s-0.2-0.5-0.5-0.5
		C2038.9,916.1,1744.3,916.1,1449.8,916.1L1449.8,916.1L1449.8,916.1z"/>
	<path class="st2" d="M1482.3,863c-302,0-604.1,0-906.1,0c-221.5,0-443,0-664.6,0c-0.3,0-0.5,0.2-0.5,0.5s0.2,0.5,0.5,0.5
		c293.4,0,586.9,0,880.3,0c304.5,0,609.1,0,913.6,0c232.8,0,465.6,0,698.5,0c0.3,0,0.5-0.2,0.5-0.5s-0.2-0.5-0.5-0.5
		C2096.9,863,1789.6,863,1482.3,863L1482.3,863L1482.3,863z"/>
	<path class="st2" d="M1463.3,816.5c-314.1,0-628.1,0-942.2,0c-218,0-436,0-654,0c-0.3,0-0.5,0.2-0.5,0.5s0.2,0.5,0.5,0.5
		c303.3,0,606.5,0,909.8,0c313.2,0,626.3,0,939.5,0c232.3,0,464.6,0,696.9,0c0.3,0,0.5-0.2,0.5-0.5s-0.2-0.5-0.5-0.5
		C2096.6,816.5,1780,816.5,1463.3,816.5L1463.3,816.5L1463.3,816.5z"/>
	<path class="st2" d="M1508.7,775c-312.3,0-624.6,0-936.8,0c-243.6,0-487.3,0-730.9,0c-0.3,0-0.5,0.2-0.5,0.5s0.2,0.5,0.5,0.5
		c301.1,0,602.2,0,903.2,0c311.7,0,623.4,0,935.1,0c248.1,0,496.3,0,744.4,0c0.3,0,0.5-0.2,0.5-0.5s-0.2-0.5-0.5-0.5
		C2118.7,775,1813.7,775,1508.7,775L1508.7,775L1508.7,775z"/>
	<path class="st2" d="M1420.4,739.3c-303.4,0-606.7,0-910.1,0c-217.4,0-434.9,0-652.3,0c-0.3,0-0.5,0.2-0.5,0.5s0.2,0.5,0.5,0.5
		c291.6,0,583.3,0,874.9,0c303.6,0,607.1,0,910.7,0c224.3,0,448.6,0,672.9,0c0.3,0,0.5-0.2,0.5-0.5s-0.2-0.5-0.5-0.5
		C2017.7,739.3,1719.1,739.3,1420.4,739.3L1420.4,739.3L1420.4,739.3z"/>
	<path class="st2" d="M60.9,734.7c-28.6,13.8-57.2,27.7-85.8,41.5c-28.8,13.9-57.6,27.8-86.3,41.7c-23.2,11.2-46.3,22.4-69.5,33.6
		c-0.2,0.1-0.3,0.5-0.2,0.7s0.4,0.3,0.7,0.2c28.4-13.7,56.7-27.4,85.1-41.1c28.8-13.9,57.6-27.9,86.4-41.8
		c23.4-11.3,46.8-22.6,70.2-33.9c0.2-0.1,0.3-0.5,0.2-0.7s-0.3-0.2-0.4-0.2C61.1,734.7,61,734.7,60.9,734.7L60.9,734.7L60.9,734.7z"
		/>
	<path class="st2" d="M185.6,770.5c-37.8,24-75.5,48.1-113.3,72.1c-38,24.2-76.1,48.4-114.1,72.6c-37.3,23.8-74.7,47.5-112,71.3
		c-1.5,1-3,1.9-4.5,2.9c-0.2,0.1-0.3,0.4-0.2,0.7c0.1,0.2,0.5,0.3,0.7,0.2c37.3-23.7,74.6-47.5,111.9-71.2
		c38.1-24.2,76.2-48.5,114.3-72.7c37.7-24,75.4-48,113.2-72c1.5-1,3.1-1.9,4.6-2.9c0.2-0.1,0.3-0.4,0.2-0.7
		c-0.1-0.2-0.3-0.2-0.4-0.2C185.7,770.4,185.7,770.4,185.6,770.5L185.6,770.5L185.6,770.5z"/>
	<path class="st2" d="M291.1,815.2c-37.7,31.7-75.3,63.4-113,95.1c-37.8,31.8-75.6,63.6-113.4,95.4c-37.6,31.7-75.3,63.4-112.9,95
		c-13.8,11.6-27.5,23.1-41.2,34.7c-0.2,0.2-0.2,0.5,0,0.7c0.1,0.1,0.2,0.1,0.4,0.1c0.1,0,0.2-0.1,0.4-0.1
		c37.2-31.3,74.4-62.6,111.6-93.9c37.7-31.7,75.4-63.5,113.1-95.2c37.9-31.9,75.7-63.7,113.6-95.6c14.1-11.9,28.2-23.7,42.3-35.6
		c0.2-0.2,0.2-0.5,0-0.7c-0.1-0.1-0.2-0.1-0.4-0.1C291.4,815.1,291.2,815.1,291.1,815.2L291.1,815.2L291.1,815.2z"/>
	<path class="st2" d="M463.9,779.2c-34,36.9-68.1,73.9-102.1,110.8c-34.1,37.1-68.3,74.1-102.4,111.2
		c-33.8,36.6-67.5,73.3-101.3,109.9c-16.4,17.8-32.8,35.6-49.1,53.3c-0.2,0.2-0.2,0.5,0,0.7s0.5,0.2,0.7,0
		c33.5-36.4,67.1-72.8,100.6-109.2c34-36.9,67.9-73.8,101.9-110.6c34.1-37,68.2-74,102.3-111c16.7-18.1,33.4-36.2,50.1-54.4
		c0.2-0.2,0.2-0.5,0-0.7c-0.1-0.1-0.2-0.1-0.4-0.1C464.1,779.1,464,779.1,463.9,779.2L463.9,779.2L463.9,779.2z"/>
	<path class="st2" d="M644.9,803.4c-25.4,49.9-50.7,99.8-76.1,149.8c-25.9,50.9-51.7,101.8-77.6,152.6
		c-22.4,44.1-44.8,88.1-67.2,132.2c-0.1,0.2-0.1,0.5,0.2,0.7c0.2,0.1,0.6,0.1,0.7-0.2c25.7-50.6,51.5-101.2,77.2-151.8
		c25.8-50.8,51.7-101.7,77.5-152.5c22.1-43.4,44.1-86.8,66.2-130.2c0.1-0.2,0.1-0.5-0.2-0.7c-0.1,0-0.2-0.1-0.3-0.1
		C645.2,803.1,645,803.2,644.9,803.4L644.9,803.4L644.9,803.4z"/>
	<path class="st2" d="M476.3,911.6c-23.8,35.5-47.5,71-71.3,106.4c-23.5,35.1-47.1,70.3-70.6,105.4s-47,70.1-70.5,105.2
		c-1.8,2.6-3.5,5.3-5.3,7.9c-0.2,0.2,0,0.6,0.2,0.7s0.5,0,0.7-0.2c23.5-35.1,47-70.1,70.5-105.2s47-70.2,70.6-105.3
		c23.7-35.4,47.5-70.9,71.2-106.3c1.8-2.7,3.6-5.3,5.4-8c0.2-0.2,0-0.6-0.2-0.7c-0.1,0-0.2-0.1-0.2-0.1
		C476.5,911.3,476.4,911.4,476.3,911.6L476.3,911.6L476.3,911.6z"/>
	<path class="st2" d="M1512.7,917.3c-0.2,0.1-0.3,0.4-0.2,0.7c13.5,26.9,27.1,53.8,40.6,80.7c13.6,27,27.2,54,40.8,81
		c11.6,23,23.1,46,34.7,68.9c0.1,0.2,0.5,0.3,0.7,0.2c0.2-0.1,0.3-0.4,0.2-0.7c-13.7-27.2-27.3-54.3-41-81.5
		c-13.6-27-27.2-54-40.8-81c-11.4-22.7-22.9-45.4-34.3-68.1c-0.1-0.2-0.3-0.2-0.4-0.2C1512.9,917.3,1512.8,917.3,1512.7,917.3
		L1512.7,917.3L1512.7,917.3z"/>
	<path class="st2" d="M1624.5,911.8c-0.2,0.1-0.3,0.5-0.2,0.7c26.6,38.5,53.1,77,79.7,115.5c26.7,38.7,53.4,77.4,80.1,116.1
		s53.4,77.4,80.1,116.2c2.7,4,5.5,8,8.2,11.9c0.2,0.2,0.4,0.3,0.7,0.2c0.2-0.1,0.3-0.5,0.2-0.7c-26.6-38.6-53.2-77.2-79.9-115.8
		c-26.8-38.8-53.5-77.6-80.3-116.4c-26.5-38.4-53-76.8-79.5-115.2c-2.8-4.1-5.7-8.2-8.5-12.3c-0.1-0.2-0.3-0.2-0.4-0.2
		C1624.6,911.7,1624.5,911.7,1624.5,911.8L1624.5,911.8L1624.5,911.8z"/>
	<path class="st2" d="M1703.4,853.4c-0.2,0.2-0.2,0.5,0,0.7c32.9,36.3,65.9,72.6,98.9,108.9c32.6,36,65.3,71.9,97.9,107.9
		c32.2,35.5,64.5,71,96.7,106.5c15.9,17.5,31.8,35,47.6,52.5c0.2,0.2,0.5,0.2,0.7,0s0.2-0.5,0-0.7c-31.5-34.7-63-69.4-94.5-104.1
		c-32.5-35.8-65.1-71.7-97.6-107.5c-32.7-36-65.4-72.1-98.2-108.1c-16.9-18.7-33.9-37.3-50.8-56c-0.1-0.1-0.2-0.1-0.3-0.1
		C1703.6,853.2,1703.5,853.3,1703.4,853.4L1703.4,853.4L1703.4,853.4z"/>
	<path class="st2" d="M1804.3,812.2c-0.2,0.2-0.2,0.5,0,0.7c46.3,39.3,92.5,78.6,138.8,117.9c46.5,39.5,93,79.1,139.5,118.6
		c46.5,39.6,93.1,79.1,139.6,118.7c16.1,13.7,32.1,27.3,48.2,41c0.1,0.1,0.2,0.1,0.4,0.1c0.1,0,0.3-0.1,0.4-0.1
		c0.2-0.2,0.2-0.5,0-0.7c-46.3-39.3-92.5-78.6-138.8-117.9c-46.6-39.6-93.2-79.2-139.9-118.9c-46.8-39.8-93.6-79.6-140.4-119.4
		c-15.7-13.3-31.4-26.7-47.1-40c-0.1-0.1-0.2-0.1-0.4-0.1C1804.5,812,1804.4,812.1,1804.3,812.2L1804.3,812.2L1804.3,812.2z"/>
	<path class="st2" d="M1917.9,772.6c-0.1,0.2-0.1,0.5,0.2,0.7c51.7,33.4,103.4,66.7,155.1,100.1c52.2,33.7,104.4,67.4,156.7,101.1
		c51.4,33.2,102.8,66.3,154.1,99.5c4.3,2.8,8.6,5.5,12.8,8.3c0.2,0.1,0.6,0.1,0.7-0.2c0.1-0.2,0.1-0.5-0.2-0.7
		c-50.7-32.7-101.4-65.5-152.2-98.2c-52.2-33.7-104.3-67.3-156.5-101c-51.7-33.4-103.4-66.8-155.2-100.2c-5-3.2-10-6.4-14.9-9.6
		c-0.1,0-0.2-0.1-0.2-0.1C1918.1,772.3,1918,772.4,1917.9,772.6L1917.9,772.6L1917.9,772.6z"/>
	<path class="st2" d="M2043.4,736.5c-0.1,0.2-0.1,0.6,0.2,0.7c41.5,20.2,82.9,40.4,124.4,60.6c42.2,20.5,84.3,41.1,126.5,61.6
		c36.1,17.6,72.1,35.1,108.2,52.7c0.2,0.1,0.5,0.1,0.7-0.2c0.1-0.2,0.1-0.6-0.2-0.7c-41.4-20.1-82.7-40.3-124.1-60.4
		c-42.1-20.5-84.2-41-126.3-61.5c-36.2-17.6-72.5-35.3-108.7-52.9c-0.1,0-0.2-0.1-0.3-0.1C2043.7,736.3,2043.5,736.4,2043.4,736.5
		L2043.4,736.5L2043.4,736.5z"/>
</g>
</svg>
