<?xml version="1.0" encoding="utf-8"?>
<!-- Generator: Adobe Illustrator 23.0.1, SVG Export Plug-In . SVG Version: 6.00 Build 0)  -->
<svg version="1.1" id="Слой_1" xmlns="http://www.w3.org/2000/svg" xmlns:xlink="http://www.w3.org/1999/xlink" x="0px" y="0px"
	 viewBox="0 0 1369.8 317" style="enable-background:new 0 0 1369.8 317;" xml:space="preserve">
<style type="text/css">
	.st0{fill:#A0A0A0;}
	.st1{fill:#FFFFFF;stroke:#FFFFFF;stroke-width:4;stroke-miterlimit:10;}
	.st2{fill:#FFFFFF;stroke:#FFFFFF;stroke-miterlimit:10;}
	.st3{fill:#FFFFFF;stroke:#FFFFFF;stroke-width:3;stroke-miterlimit:10;}
	.st4{fill:url(#SVGID_1_);stroke:url(#SVGID_2_);stroke-miterlimit:10;}
	.st5{fill:url(#SVGID_3_);stroke:url(#SVGID_4_);stroke-width:3;stroke-miterlimit:10;}
	.st6{fill:url(#SVGID_5_);stroke:url(#SVGID_6_);stroke-width:3;stroke-miterlimit:10;}
	.st7{fill:url(#SVGID_7_);stroke:url(#SVGID_8_);stroke-width:3;stroke-miterlimit:10;}
	.st8{fill:url(#SVGID_9_);stroke:url(#SVGID_10_);stroke-width:3;stroke-miterlimit:10;}
	.st9{fill:url(#SVGID_11_);stroke:url(#SVGID_12_);stroke-width:3;stroke-miterlimit:10;}
	.st10{fill:url(#SVGID_13_);stroke:url(#SVGID_14_);stroke-width:3;stroke-miterlimit:10;}
	.st11{fill:url(#SVGID_15_);stroke:url(#SVGID_16_);stroke-width:3;stroke-miterlimit:10;}
	.st12{fill:url(#SVGID_17_);stroke:url(#SVGID_18_);stroke-width:3;stroke-miterlimit:10;}
	.st13{fill:url(#SVGID_19_);stroke:url(#SVGID_20_);stroke-width:3;stroke-miterlimit:10;}
</style>
<title>designer</title>
<path class="st0" d="M738.5,164.1l-32.1,25.5c0,0,10.6,34,11.9,38.3l-33.5-22.8L651.9,228l11.5-38.3l-31.9-25.5h40
	c2.7-7.7,7-20.6,13.1-38.2l13.4,38.2L738.5,164.1L738.5,164.1z"/>
<g>
	<path class="st1" d="M260.1,208.2c0,3.1,0,6.3,0,9.4c0,0.3,0,0.3,0.4,0.3c1,0,2,0,3.1,0c0.7,0,1.2,0.3,1.2,0.8
		c0,0.4-0.6,0.8-1.2,0.8c-18.4,0-36.8,0-55.2,0c-1.7,0-3.4,0-5.2,0c-1.1,0-2.2,0-3.2-0.1c-0.5,0-1.1-0.3-1.1-0.9
		c0-0.4,0.5-0.7,1.1-0.7c1.1,0,2.1,0,3.2,0c0.4,0,0.5-0.1,0.6-0.3c0.1-0.6,0.3-1.1,0.4-1.7c0.1-0.5,0.3-1,0.4-1.5
		c0.1-0.6,0.3-1.2,0.4-1.8c0.1-0.5,0.3-0.9,0.4-1.4c0.1-0.4,0.2-0.8,0.3-1.3c0.1-0.4,0.2-0.8,0.3-1.2c0.1-0.5,0.2-1,0.4-1.5
		c0.2-0.6,0.3-1.2,0.5-1.8c0.1-0.5,0.2-1,0.3-1.5c0.1-0.6,0.3-1.2,0.5-1.7c0.1-0.5,0.2-1,0.3-1.5c0.1-0.6,0.3-1.2,0.5-1.7
		c0.1-0.6,0.3-1.2,0.4-1.8c0.1-0.5,0.3-1,0.4-1.5c0.1-0.6,0.3-1.2,0.4-1.8c0.1-0.5,0.3-1.1,0.4-1.6c0.1-0.4,0.2-0.8,0.3-1.2
		c0.1-0.5,0.2-1,0.3-1.5s0.3-1,0.4-1.5c0.2-0.6,0.3-1.3,0.5-1.9c0.2-0.8,0.4-1.7,0.6-2.5c0.2-0.9,0.5-1.9,0.7-2.8
		c0.2-0.9,0.4-1.9,0.7-2.8c0.3-1.1,0.6-2.2,0.9-3.3c0.2-0.8,0.3-1.6,0.5-2.4c0.2-0.9,0.5-1.8,0.7-2.7s0.4-1.8,0.6-2.6
		c0.2-0.7,0.4-1.5,0.6-2.2c0.2-0.6,0.3-1.2,0.4-1.8c0.1-0.5,0.3-1.1,0.5-1.6c0.1-0.5,0.2-1,0.3-1.5c0.1-0.6,0.3-1.2,0.5-1.8
		c0.1-0.6,0.3-1.1,0.4-1.7c0.2-0.6,0.3-1.2,0.5-1.8c0.1-0.5,0.2-1,0.3-1.6c0.2-0.6,0.3-1.3,0.5-1.9c0.1-0.4,0.2-0.8,0.3-1.2
		c0.1-0.5,0.2-1,0.4-1.5c0.1-0.5,0.3-0.9,0.4-1.4c0.2-0.6,0.3-1.2,0.5-1.8c0.1-0.6,0.3-1.2,0.4-1.7c0.2-0.7,0.4-1.3,0.5-2
		c0.1-0.4,0.2-0.8,0.3-1.2c0.1-0.6,0.3-1.1,0.4-1.7c0.1-0.3,0.1-0.5,0.2-0.8c0-0.6,0.4-1.1,0.8-1.5c0.5-0.5,1.1-1,1.9-1.3
		c0.6-0.3,1.3-0.5,2-0.5c4.2,0,8.4,0,12.6-0.1c4.2,0,8.3,0,12.5,0c0.5,0,0.9-0.1,1.4,0c1.7,0.1,3.1,0.5,4.2,1.5
		c0.6,0.5,1,1.2,1.1,1.9c0,0.3,0.1,0.7,0.1,1C260.1,162,260.1,185.1,260.1,208.2L260.1,208.2L260.1,208.2z M257.9,213.4
		c0-25,0-49.9,0-74.9c0-0.2,0-0.4-0.1-0.5c-0.2-1.1-1.5-1.8-2.9-1.8c-8.6,0-17.2,0-25.8,0c-0.2,0-0.5,0-0.7,0
		c-0.7,0.1-1.3,0.3-1.8,0.6c-0.6,0.4-0.9,0.9-1,1.5s-0.3,1.2-0.5,1.8c-0.1,0.4-0.2,0.8-0.3,1.2c-0.1,0.5-0.3,1.1-0.4,1.6
		c-0.1,0.5-0.2,1-0.3,1.5s-0.3,1-0.4,1.5c-0.1,0.5-0.2,1-0.3,1.5c-0.2,0.9-0.4,1.7-0.7,2.6c-0.1,0.4-0.2,0.9-0.3,1.3
		c-0.1,0.5-0.2,0.9-0.3,1.4c-0.1,0.4-0.2,0.8-0.3,1.2c-0.1,0.5-0.2,1-0.4,1.5c-0.1,0.5-0.2,1-0.4,1.4c-0.1,0.4-0.2,0.8-0.3,1.2
		s-0.2,0.8-0.3,1.2c-0.1,0.5-0.3,1-0.4,1.5c-0.1,0.5-0.2,1-0.4,1.4c-0.2,0.7-0.4,1.3-0.5,2c-0.1,0.6-0.3,1.2-0.4,1.8
		c-0.2,0.7-0.4,1.4-0.5,2c-0.1,0.4-0.2,0.8-0.3,1.3s-0.3,1.1-0.4,1.6c-0.1,0.5-0.2,1-0.3,1.5s-0.3,1.1-0.4,1.6
		c-0.1,0.5-0.3,1-0.4,1.5c-0.1,0.4-0.2,0.8-0.3,1.1c-0.1,0.4-0.2,0.8-0.3,1.2c-0.2,0.7-0.4,1.3-0.5,2c-0.1,0.6-0.3,1.2-0.4,1.7
		c-0.1,0.6-0.3,1.2-0.5,1.8s-0.3,1.2-0.5,1.7c-0.1,0.4-0.2,0.8-0.3,1.2s-0.2,0.8-0.3,1.2c-0.1,0.6-0.3,1.1-0.4,1.7
		c-0.1,0.6-0.3,1.2-0.4,1.8c-0.1,0.6-0.3,1.2-0.5,1.8c-0.1,0.6-0.3,1.1-0.4,1.7c-0.1,0.5-0.3,1-0.4,1.5c-0.1,0.5-0.2,1-0.3,1.6
		s-0.3,1.1-0.5,1.7c-0.1,0.5-0.2,1-0.3,1.5c-0.1,0.6-0.3,1.2-0.5,1.7c-0.2,0.7-0.3,1.3-0.5,2c-0.1,0.6-0.3,1.2-0.5,1.8
		c-0.1,0.6-0.3,1.2-0.4,1.8c-0.2,0.9-0.4,1.7-0.7,2.6c-0.1,0.5-0.2,1-0.3,1.5c-0.2,0.7-0.4,1.5-0.6,2.2c-0.1,0.5-0.2,1-0.3,1.6
		c-0.2,0.6-0.4,1.3-0.5,1.9c-0.1,0.4-0.1,0.4,0.4,0.4c17,0,34.1,0,51.1,0h0.1c0.3,0,0.4-0.1,0.3-0.3c0-0.3,0-0.6,0-1
		C257.9,215.6,257.9,214.5,257.9,213.4L257.9,213.4L257.9,213.4z"/>
	<path class="st1" d="M314.9,208.8c0.7-0.2,1.3-0.5,2-0.7c1.1-0.4,2.3-0.8,3.4-1.2c0.3-0.1,0.7-0.2,1-0.3c0.2-0.1,0.3-0.2,0.3-0.3
		c0,0,0,0,0-0.1c0-21.6,0-43.2,0-64.8c0-0.4,0.4-0.7,0.8-0.7c0.6,0,0.9,0.4,1,0.7c0,0,0,0,0,0.1c0,23.5,0,46.9,0,70.4
		c0,0.4-0.4,0.8-1,0.8c-0.4,0-0.8-0.3-0.8-0.6c0-1.3,0-2.5,0-3.8c0-0.3,0-0.3-0.3-0.1c-1.3,0.5-2.6,0.9-3.9,1.4
		c-0.7,0.3-1.4,0.5-2.1,0.8c-1.1,0.4-2.1,0.7-3.2,1.1c-0.8,0.3-1.6,0.6-2.4,0.8c-0.7,0.2-1.5,0.4-2.3,0.5c-0.8,0.2-1.6,0.3-2.3,0.4
		c-0.7,0.1-1.3,0.1-2,0.2c-1,0-2,0.1-3,0.1c-6.5,0-13.1,0-19.6,0c-1.1,0-2.1-0.3-2.9-0.8s-1.2-1.1-1.5-1.9c-0.1-0.1-0.1-0.3-0.1-0.4
		c0-21.1,0-42.2,0-63.2c0-0.9,0-1.9,0-2.8c0-0.6,0-1.2,0-1.7c0-0.4,0-0.7,0.1-1.1c0-0.3,0.4-0.6,0.8-0.6s0.9,0.2,0.9,0.5
		s0,0.7,0.1,1c0,0.4,0,0.8,0.1,1.2c0,0.2-0.1,0.3,0,0.5c0,0.8,0.1,1.6,0.1,2.3c0,21.3,0,42.6,0,63.8c0,0.8,0.9,1.6,2,1.8
		c0.2,0,0.5,0.1,0.7,0.1s0.4,0,0.7,0c0.6,0,1.3,0,1.9,0c5.8,0,11.7,0,17.5,0c0.8,0,1.6,0,2.5-0.1c2-0.1,4-0.5,5.9-1
		c1.1-0.3,2-0.7,3.1-1.1c0.9-0.3,1.8-0.6,2.7-0.9C314.7,208.8,314.8,208.8,314.9,208.8L314.9,208.8L314.9,208.8z"/>
	<path class="st1" d="M384.9,210.6c-0.2,0.7-0.6,1.3-1.3,1.8c-0.7,0.4-1.4,0.8-2.4,0.8c-0.5,0-1.1,0.1-1.6,0.1
		c-13.6,0-27.3,0-40.9,0c-0.5,0-0.9-0.1-1.1-0.4c-0.3-0.4,0.2-0.8,0.6-0.9c0.2,0,0.4,0,0.6,0c13.9,0,27.8,0,41.7,0
		c1.2,0,2.2-0.6,2.5-1.4c0.1-0.1,0.1-0.3,0.1-0.4c0-10.6,0-21.2,0-31.9c0-1.5,0.1-3,0-4.5c0-0.9-0.9-1.7-2.2-1.9
		c-0.5-0.1-1-0.1-1.4-0.1c-4.8,0-9.7,0-14.5,0c-0.6,0-1-0.3-1-0.7s0.4-0.7,1-0.7c5,0,10,0,15.1,0c1.1,0,2-0.3,2.6-1
		c0.2-0.2,0.3-0.5,0.3-0.8c0-8.2,0-16.3,0-24.5c0-0.7-0.4-1.3-1.3-1.7c-0.4-0.2-0.8-0.3-1.2-0.3c-13.5,0-27.1,0-40.6,0
		c-0.6,0-1.1-0.3-1-0.7c0-0.3,0.3-0.6,0.8-0.7c0.3,0,0.6,0,1,0c13.3,0,26.6,0,39.9,0c1.1,0,2,0.3,2.9,0.8c0.8,0.5,1.2,1.2,1.5,2
		c0.1,0.2,0,0.4,0,0.6c0,7.6,0,15.3,0,22.9c0,0.4,0.1,0.9,0.1,1.3c0,0.9-0.5,1.8-1.4,2.4c-0.3,0.2-0.3,0.2,0.1,0.4
		c0.6,0.4,0.9,0.8,1.2,1.3c0.2,0.4,0.3,0.8,0.3,1.3c0,1.9,0,3.9,0,5.8c0,10,0,19.9-0.1,29.9c0,0.3,0,0.5,0,0.8
		C385,210.4,384.9,210.5,384.9,210.6L384.9,210.6L384.9,210.6z"/>
	<path class="st1" d="M398.9,199.8c0-18.2,0-36.5,0-54.7c0-0.8,0.3-1.5,0.8-2.2s1.2-1.2,2.2-1.6c0.8-0.3,1.6-0.6,2.4-0.6
		c12.3,0,24.6,0,36.8,0c0.6,0,1.2,0.1,1.7,0.3c0.8,0.3,1.5,0.7,2.1,1.2c0.6,0.6,1.1,1.2,1.3,2c0.1,0.6,0.2,1.1,0.2,1.7
		c0,22,0,44,0,66c0,0.3,0,0.6-0.1,0.9c-0.1,0.4-0.7,0.6-1.1,0.5c-0.5-0.1-0.7-0.4-0.7-0.8c0-8.7,0-17.3,0-26c0-0.2-0.1-0.3-0.3-0.3
		c-14.4,0-28.7,0-43.1,0c-0.4,0-0.4,0-0.4,0.3c0,8.7,0,17.3,0,26c0,0.5-0.4,0.8-1,0.8c-0.5,0-0.8-0.3-0.9-0.7v-0.1
		C398.9,208.3,398.9,204,398.9,199.8L398.9,199.8L398.9,199.8z M400.7,165.2c0,6.5,0,13,0,19.4c0,0.3,0,0.3,0.4,0.3
		c14.4,0,28.7,0,43.1,0c0.3,0,0.4-0.1,0.4-0.3c0-13.2,0-26.4-0.1-39.6c0-0.3-0.1-0.6-0.2-0.9c-0.3-0.6-0.7-1.1-1.4-1.4
		c-0.7-0.4-1.4-0.6-2.2-0.6c-10.7,0-21.4,0-32.1,0c-1.3,0-2.6,0-3.8,0c-0.7,0-1.3,0.1-1.9,0.4c-0.7,0.3-1.3,0.8-1.6,1.3
		c-0.3,0.5-0.4,1.1-0.4,1.7C400.7,152,400.7,158.6,400.7,165.2L400.7,165.2L400.7,165.2z"/>
	<path class="st1" d="M501.3,208c0.9-0.3,1.7-0.6,2.5-0.9c0.5-0.2,1.1-0.4,1.6-0.6c0.1,0,0.2-0.2,0.2-0.3s0-0.3,0-0.4
		c0-21.2,0-42.5,0-63.7c0-0.3,0-0.6,0.5-0.8s1.1-0.1,1.3,0.4c0.1,0.1,0.1,0.3,0.1,0.4c0,23.2,0,46.4,0,69.6c0,0.5-0.4,0.8-1,0.8
		c-0.3,0-0.7-0.3-0.8-0.5c0-0.3-0.1-0.5-0.1-0.8c0-0.9,0-1.8,0-2.7c0-0.1,0-0.3,0.1-0.4c0-0.2-0.1-0.2-0.3-0.1
		c-0.9,0.3-1.9,0.6-2.8,1c-1.1,0.4-2.3,0.8-3.4,1.2c-1.2,0.4-2.3,0.8-3.5,1.2c-1,0.3-2.1,0.7-3.1,0.9c-1,0.3-2.1,0.5-3.1,0.6
		c-0.8,0.1-1.6,0.2-2.3,0.2c-0.8,0-1.6,0.1-2.3,0.1c-6.7,0-13.4,0-20.1,0c-1.1,0-2.1-0.2-3-0.8c-0.9-0.5-1.4-1.2-1.6-2
		c-0.1-0.3,0-0.6,0-0.9c0-0.1-0.1-0.2-0.1-0.3c0-22.4,0-44.8,0-67.2c0-0.5,0.5-0.8,1-0.8c0.4,0,0.7,0.2,0.8,0.5
		c0,0.2,0.1,0.4,0.1,0.7c0,22.6,0,45.1,0,67.7c0,0.4,0.2,0.7,0.6,1c0.5,0.5,1.2,0.6,2,0.7c0.2,0,0.4,0,0.6,0c6.1,0,12.3,0,18.4,0
		c1.3,0,2.5,0,3.8-0.1s2.5-0.2,3.8-0.5c0.9-0.2,1.7-0.4,2.6-0.6c0.8-0.2,1.6-0.6,2.4-0.8c1.6-0.5,3.1-1.1,4.7-1.6
		C500.8,208.2,501,208.1,501.3,208L501.3,208L501.3,208z M495.4,140.6c-7.8,0-15.6,0-23.3,0c-0.6,0-0.9-0.2-1.1-0.6
		c-0.1-0.3,0.3-0.7,0.7-0.7h0.1c7.8,0,15.5,0,23.3,0c0.6,0,0.9,0.3,1,0.5C496.2,140.1,496,140.5,495.4,140.6L495.4,140.6
		L495.4,140.6z"/>
	<path class="st1" d="M523.3,198.6c0,4.6,0,9.3,0,13.9c0,0.3-0.2,0.6-0.5,0.7c-0.3,0.1-0.7,0.1-1-0.1c-0.1-0.1-0.2-0.3-0.3-0.4v-0.1
		c0-22.2,0-44.5,0-66.7c0-0.2,0-0.4,0-0.6c0-0.2,0-0.3,0-0.5c0-1.1,0-2.3,0-3.4c0-0.4,0.3-0.6,0.8-0.7c0.4,0,0.8,0.2,0.9,0.5
		c0,0.1,0.1,0.2,0.1,0.3c0,14.4,0,28.7,0,43.1c0,0.3,0.1,0.3,0.4,0.3c14.3,0,28.7,0,43,0c0.4,0,0.5-0.1,0.5-0.3
		c0-14.4,0-28.7,0-43.1c0-0.4,0.4-0.7,0.9-0.7c0.4,0,0.9,0.3,0.9,0.7c0,23.7,0,47.4,0,71.2c0,0.4-0.4,0.7-0.9,0.7s-0.9-0.3-0.9-0.7
		c0-8.7,0-17.4,0-26.1c0-0.2-0.1-0.3-0.3-0.3c-14.4,0-28.8,0-43.2,0c-0.3,0-0.4,0-0.4,0.3C523.3,190.5,523.3,194.6,523.3,198.6
		L523.3,198.6L523.3,198.6z"/>
</g>
<g>
	<g>
		<g>
			<path class="st2" d="M811.9,108.9c0,6.8,0,13.5,0,20.3c0,10.7,0,21.4,0,32.1v7.4c0,3.2,7.2,3.3,7.2,0c0-6.8,0-13.5,0-20.3
				c0-10.7,0-21.4,0-32.1v-7.4C819.1,105.6,811.9,105.6,811.9,108.9L811.9,108.9z"/>
			<path class="st2" d="M865.5,166.2c-7.6,0-15.3,0-22.9,0c-12.1,0-24.3,0-36.4,0h-8.3c-4.6,0-4.7,5.1,0,5.1c7.6,0,15.3,0,22.9,0
				c12.1,0,24.3,0,36.4,0h8.3C870.1,171.3,870.1,166.2,865.5,166.2L865.5,166.2z"/>
			<path class="st2" d="M833.3,106.3l-31,0.1c-1.5,0-2.9,0-4.4,0c-4.6,0-4.7,5.1,0,5.1l31-0.1c1.5,0,2.9,0,4.4,0
				C837.9,111.4,838,106.3,833.3,106.3z"/>
			<path class="st2" d="M869.3,168.6c-0.1-6.6-0.1-13.2-0.2-19.7c0-0.9,0-1.9,0-2.8c0-3.2-7.3-3.3-7.2,0c0.1,6.6,0.1,13.2,0.2,19.7
				c0,0.9,0,1.9,0,2.8C862.1,171.8,869.4,171.9,869.3,168.6z"/>
		</g>
		<g>
			<g>
				<path class="st3" d="M916.4,168.1c0.4,0,0.8,0,1.1,0c0.8,0,1.4,0.2,1.7,0.7c0.3,0.4,0.2,0.8-0.3,1.1c-0.3,0.3-0.8,0.4-1.3,0.4
					c-5.5,0-11.1,0-16.6,0c-3.3,0-6.6,0-9.8,0c-1.1,0-2.3-0.1-3.3-0.5c-1.6-0.5-2.7-1.3-3-2.4c-0.2-0.5-0.3-1-0.3-1.5
					c0-15.3,0-30.6,0-45.9c0-0.7,0.2-1.4,0.8-2.1c0.9-1,2.2-1.6,4-1.8c0.8-0.1,1.7-0.2,2.5-0.2c2.9,0,5.8,0,8.7,0
					c5.7,0,11.5,0,17.2,0c1.1,0,1.9,0.7,1.7,1.3c-0.2,0.5-1,0.9-1.9,0.9c-8.5,0-17.1,0-25.6,0c-0.8,0-1.5,0-2.3,0.2
					c-0.8,0.3-1.3,0.7-1.4,1.2c-0.1,0.5-0.1,1-0.1,1.5c0,5.4,0,10.9,0,16.3c0,0.3,0.1,0.3,0.5,0.3c6.4,0,12.8,0,19.3,0
					c0.8,0,1.4,0.3,1.8,0.7c0.3,0.4,0.3,0.9-0.2,1.3c-0.4,0.3-1,0.5-1.7,0.5c-6.4,0-12.8,0-19.1,0c-0.4,0-0.5,0-0.5,0.3
					c0,8.5,0,17,0,25.5c0,0.5,0,1,0.4,1.4c0.4,0.5,1.1,0.8,2,0.8s1.8,0.1,2.8,0.1C901,168.1,908.7,168.1,916.4,168.1L916.4,168.1
					L916.4,168.1z"/>
				<path class="st3" d="M1014.2,168.1c0.4,0,0.8,0,1.1,0c0.8,0,1.4,0.2,1.7,0.7c0.3,0.4,0.2,0.8-0.3,1.1c-0.3,0.3-0.8,0.4-1.3,0.4
					c-5.5,0-11.1,0-16.6,0c-3.3,0-6.6,0-9.8,0c-1.1,0-2.3-0.1-3.3-0.5c-1.6-0.5-2.7-1.3-3-2.4c-0.2-0.5-0.3-1-0.3-1.5
					c0-15.3,0-30.6,0-45.9c0-0.7,0.2-1.4,0.8-2.1c0.9-1,2.2-1.6,4-1.8c0.8-0.1,1.7-0.2,2.5-0.2c2.9,0,5.8,0,8.7,0
					c5.7,0,11.5,0,17.2,0c1.1,0,1.9,0.7,1.7,1.3c-0.2,0.5-1,0.9-1.9,0.9c-8.5,0-17.1,0-25.6,0c-0.8,0-1.5,0-2.3,0.2
					c-0.8,0.3-1.3,0.7-1.4,1.2c-0.1,0.5-0.1,1-0.1,1.5c0,5.4,0,10.9,0,16.3c0,0.3,0.1,0.3,0.5,0.3c6.4,0,12.8,0,19.3,0
					c0.8,0,1.4,0.3,1.8,0.7c0.3,0.4,0.3,0.9-0.2,1.3c-0.4,0.3-1,0.5-1.7,0.5c-6.4,0-12.8,0-19.1,0c-0.4,0-0.5,0-0.5,0.3
					c0,8.5,0,17,0,25.5c0,0.5,0,1,0.4,1.4c0.4,0.5,1.1,0.8,2,0.8s1.8,0.1,2.8,0.1C998.7,168.1,1006.4,168.1,1014.2,168.1
					L1014.2,168.1L1014.2,168.1z"/>
				<path class="st3" d="M937,165.3c0,1.3,0,2.7,0,4c0,0.7-1.1,1.2-2.2,1c-0.8-0.1-1.3-0.6-1.3-1.1c0-3.1,0-6.2,0-9.2
					c0-13.3,0-26.7-0.1-40c0-0.7,0.2-1.4,0.8-2.1c0.9-1,2.1-1.6,3.9-1.9c0.8-0.1,1.7-0.2,2.5-0.2c3,0,6,0,9,0c5.6,0,11.3,0,16.9,0
					c1,0,1.9,0.7,1.7,1.3c-0.2,0.5-1,0.9-1.8,0.9c-8.6,0-17.2,0-25.8,0c-0.8,0-1.6,0-2.3,0.2c-0.8,0.3-1.3,0.7-1.3,1.2
					c-0.1,0.5-0.1,1.1-0.1,1.6c0,5.4,0,10.8,0,16.2c0,0.3,0,0.3,0.5,0.3c6.3,0,12.7,0,19,0c0.8,0,1.4,0.3,1.8,0.7
					c0.3,0.4,0.3,0.9-0.2,1.3c-0.4,0.3-1,0.5-1.6,0.5c-6.3,0-12.6,0-18.9,0c-0.4,0-0.5,0-0.5,0.3c0,6.2,0,12.3,0,18.5
					C937,161,937,163.1,937,165.3L937,165.3L937,165.3z"/>
				<path class="st3" d="M1032.6,169.1c-0.9-0.6-1.5-1.2-1.7-2c-0.1-0.4-0.2-0.8-0.2-1.2c0-15.3,0-30.7,0-46c0-0.7,0.2-1.4,0.8-2.1
					c0.9-1,2.2-1.6,4-1.9c0.8-0.1,1.7-0.2,2.5-0.2c2.8,0,5.6,0,8.3,0c5.8,0,11.7,0,17.5,0c1.1,0,1.9,0.7,1.7,1.3
					c-0.2,0.5-1.1,0.9-1.8,0.9c-8.5,0-17.1,0-25.6,0c-0.8,0-1.6,0-2.3,0.2c-0.8,0.3-1.3,0.7-1.3,1.2c-0.1,0.6-0.1,1.2-0.1,1.8
					c0,14.8,0,29.7,0,44.5c0,0.4,0.1,0.8,0.3,1.2c0.2,0.6,1.1,1,2.1,1s2,0.1,3.1,0.1c8,0,16.1,0,24.1,0c1.1,0,2,0.7,1.7,1.3
					c-0.2,0.5-1.1,0.9-1.8,0.9c-5.5,0-10.9,0-16.4,0c-3.3,0-6.6,0-9.9,0c-1.1,0-2.3-0.1-3.3-0.5
					C1033.5,169.6,1033.1,169.4,1032.6,169.1L1032.6,169.1L1032.6,169.1z"/>
				<path class="st3" d="M1112.7,122.2c0-1.8,0-3.6,0-5.4c0-0.7,1-1.2,1.9-1c0.7,0.1,1.1,0.6,1.1,1.1c0,3.4,0,6.7,0,10.1
					c0,10.6,0,21.2-0.1,31.7c0,3.5,0,7,0.1,10.5c0,0.7-1,1.2-1.9,1c-0.7-0.1-1.1-0.6-1.1-1.1c0-3,0-6,0-9c0-3.6,0-7.3-0.1-10.9
					c0-0.2-0.1-0.2-0.3-0.2c-9.3,0-18.7,0-28,0c-0.3,0-0.3,0.1-0.3,0.3c0,6.6,0,13.3,0,19.9c0,0.6-1,1.2-1.9,1
					c-0.8-0.2-1.2-0.5-1.2-1.1c0-3.3,0-6.7,0-10c0-10.6,0-21.2,0.1-31.7c0-3.5,0-7-0.1-10.5c0-0.5,0.4-0.8,0.9-1s1.1-0.1,1.5,0.2
					c0.4,0.2,0.6,0.5,0.6,0.9c0,9.9,0,19.8,0,29.7c0,0.3,0,0.3,0.4,0.3c9.3,0,18.6,0,27.9,0c0.4,0,0.4,0,0.4-0.3c0-7,0-14,0-21.1
					C1112.6,124.5,1112.6,123.4,1112.7,122.2L1112.7,122.2L1112.7,122.2z"/>
				<path class="st3" d="M1131.7,121.9c0-1.7,0-3.4,0-5.1c0-0.7,1-1.2,2-1c0.7,0.1,1.2,0.6,1.2,1.1c0,10.9,0,21.9,0,32.8v0.1
					c0,0.2,0,0.2,0.2,0.1c0.7-0.2,1.5-0.4,2.2-0.7c0.7-0.2,1.3-0.4,2-0.6c0.8-0.2,1.5-0.5,2.3-0.7s1.5-0.5,2.3-0.7s1.5-0.4,2.3-0.7
					c0.4-0.1,0.8-0.3,1.3-0.4c0.2-0.1,0.3-0.2,0.4-0.3c0.4-1.1,0.9-2.2,1.3-3.3c0.5-1.2,0.9-2.3,1.4-3.5c0.4-1.1,0.9-2.2,1.3-3.3
					s0.9-2.1,1.3-3.2c0.4-1,0.8-2.1,1.2-3.1c0.4-1.1,0.9-2.2,1.3-3.4c0.3-0.8,0.7-1.6,1-2.5c0.4-1,0.8-1.9,1.1-2.9
					c0.3-0.6,0.5-1.3,0.8-1.9c0.3-0.7,0.6-1.4,0.9-2.1c0.2-0.4,0.7-0.8,1.6-0.8c1,0,1.6,0.6,1.5,1.2c0,0.3-0.2,0.6-0.3,0.9
					c-0.3,0.7-0.6,1.5-0.9,2.2c-0.4,1.1-0.9,2.2-1.3,3.3c-0.2,0.6-0.5,1.2-0.7,1.8c-0.4,0.9-0.7,1.8-1,2.7c-0.2,0.6-0.5,1.2-0.7,1.8
					c-0.3,0.8-0.6,1.6-0.9,2.4c-0.2,0.6-0.5,1.2-0.7,1.8c-0.3,0.9-0.7,1.7-1,2.6c-0.4,1-0.8,2-1.2,3c-0.2,0.6-0.5,1.2-0.7,1.8
					c-0.3,0.8-0.7,1.6-1,2.5c-0.4,1.1-0.9,2.2-1.3,3.4c-0.2,0.5-0.7,0.8-1.3,0.9h-0.1c-0.4,0.1-0.4,0.1-0.2,0.4c1,1.2,2,2.3,3.1,3.5
					c0.8,0.9,1.6,1.8,2.4,2.7c1,1.2,2.1,2.3,3.1,3.5c1,1.1,2,2.2,3,3.4c0.9,1,1.7,1.9,2.6,2.9s1.7,2,2.6,2.9
					c0.2,0.2,0.4,0.4,0.6,0.6c0.6,0.7,0.1,1.6-1,1.8c-0.7,0.1-1.4,0-1.9-0.6c-1.1-1.3-2.3-2.6-3.4-3.9c-0.7-0.8-1.4-1.6-2.2-2.5
					c-1-1.1-2-2.3-3-3.4c-0.7-0.8-1.4-1.5-2.1-2.3c-1-1.1-1.9-2.2-2.9-3.3c-0.6-0.7-1.2-1.3-1.8-2c-0.7-0.8-1.5-1.7-2.2-2.5
					c-0.2-0.2-0.3-0.3-0.7-0.1c-0.9,0.3-1.8,0.5-2.7,0.8c-0.8,0.2-1.5,0.5-2.3,0.7s-1.5,0.5-2.3,0.7c-0.7,0.2-1.3,0.4-2,0.6
					c-0.2,0.1-0.5,0.2-0.7,0.2c-0.3,0-0.4,0.2-0.4,0.4c0,3.4,0,6.7,0,10.1c0,2.1,0,4.2,0,6.3c0,0.7-1,1.2-2,1
					c-0.7-0.1-1.2-0.6-1.2-1.1C1131.7,153.4,1131.7,137.7,1131.7,121.9L1131.7,121.9L1131.7,121.9z"/>
				<path class="st3" d="M1182.7,158.6c0,3.6,0,7.1,0,10.6c0,0.4-0.7,1-1.5,1.1c-0.8,0-1.6-0.6-1.6-1.1c0-10.4,0-20.7,0-31.1
					c0-6.2,0-12.3,0.1-18.5c0-0.9,0.4-1.6,1.2-2.3c0.7-0.6,1.5-1,2.5-1.2c0.4-0.1,0.7-0.1,1.1-0.1c5.9-0.2,11.8,0,17.7-0.1
					c2.1,0,4.2,0,6.2,0c1.1,0,2.2,0.1,3.1,0.5c0.6,0.2,1.1,0.6,1.5,0.9c0.5,0.4,0.8,0.9,1,1.4c0.1,0.3,0.2,0.6,0.2,0.9
					c0,13.5,0,27.1,0,40.6c0,3,0,6,0.1,9.1c0,0.5-0.7,0.9-1.3,1c-0.9,0.1-1.6-0.6-1.6-1.2c0-5.3,0-10.6,0-15.9c0-1.3,0-2.6-0.1-3.9
					c0-0.2-0.1-0.2-0.3-0.2c-9.4,0-18.8,0-28.2,0c-0.3,0-0.3,0.1-0.3,0.3C1182.7,152.4,1182.7,155.5,1182.7,158.6L1182.7,158.6
					L1182.7,158.6z M1206.4,146.9c1.6,0,3.2,0,4.8,0c0.3,0,0.4-0.1,0.4-0.3c0-8.6,0-17.3,0-25.9c0-0.3,0-0.7-0.1-1
					c0-0.2,0-0.3-0.1-0.5c-0.2-0.8-1.2-1.3-2.3-1.3c-1.4,0-2.9,0-4.3,0c-2.9,0-5.9,0-8.8,0c-2.7,0-5.4,0-8,0c-1.2,0-2.4,0-3.5,0.1
					c-0.6,0.1-1.3,0.4-1.5,0.9c-0.1,0.4-0.3,0.8-0.3,1.3c0,8.8,0,17.6,0,26.4c0,0.3,0,0.4,0.5,0.4
					C1191,146.9,1198.7,146.9,1206.4,146.9L1206.4,146.9L1206.4,146.9z"/>
			</g>
			<g>
				<ellipse class="st3" cx="908.7" cy="109.4" rx="1.8" ry="1.1"/>
				<ellipse class="st3" cx="895.3" cy="109.4" rx="1.8" ry="1.1"/>
			</g>
		</g>
	</g>
	<g>
		
			<linearGradient id="SVGID_1_" gradientUnits="userSpaceOnUse" x1="832.0562" y1="1574.7" x2="832.0562" y2="1639.7" gradientTransform="matrix(1 0 0 1 0 -1392)">
			<stop  offset="0" style="stop-color:#FFFFFF"/>
			<stop  offset="1" style="stop-color:#9C9C9C"/>
		</linearGradient>
		
			<linearGradient id="SVGID_2_" gradientUnits="userSpaceOnUse" x1="832.0562" y1="1574.2" x2="832.0562" y2="1640.2" gradientTransform="matrix(1 0 0 1 0 -1392)">
			<stop  offset="0" style="stop-color:#FFFFFF"/>
			<stop  offset="1" style="stop-color:#9C9C9C"/>
		</linearGradient>
		<path class="st4" d="M812.1,245.1c0,3.2,7.2,3.2,7.2,0v-7.4c0-10.7,0-21.4,0-32.1c0-6.8,0-13.5,0-20.3c0-3.3-7.2-3.2-7.2,0v7.4
			c0,10.7,0,21.4,0,32.1C812.1,231.6,812.1,238.3,812.1,245.1z M865.7,187.8c4.6,0,4.6-5.1,0-5.1h-8.3c-12.1,0-24.3,0-36.5,0
			c-7.6,0-15.3,0-22.9,0c-4.7,0-4.6,5.1,0,5.1h8.3c12.1,0,24.3,0,36.5,0C850.4,187.8,858,187.8,865.7,187.8L865.7,187.8z
			 M833.5,247.7c4.7,0,4.6-5,0-5.1c-1.5,0-2.9,0-4.4,0l-31-0.1c-4.7,0-4.6,5,0,5.1c1.5,0,2.9,0,4.4,0L833.5,247.7z M869.6,185.4
			c0-3.3-7.2-3.2-7.2,0c0,0.9,0,1.9,0,2.8c0,6.6-0.1,13.2-0.2,19.7c0,3.3,7.2,3.2,7.2,0c0-0.9,0-1.9,0-2.8
			C869.4,198.6,869.5,192,869.6,185.4z"/>
		<g>
			<g>
				
					<linearGradient id="SVGID_3_" gradientUnits="userSpaceOnUse" x1="902.0655" y1="1575.3" x2="902.0655" y2="1629.7" gradientTransform="matrix(1 0 0 1 0 -1392)">
					<stop  offset="0" style="stop-color:#FFFFFF"/>
					<stop  offset="1" style="stop-color:#9C9C9C"/>
				</linearGradient>
				
					<linearGradient id="SVGID_4_" gradientUnits="userSpaceOnUse" x1="902.0655" y1="1573.8" x2="902.0655" y2="1631.2" gradientTransform="matrix(1 0 0 1 0 -1392)">
					<stop  offset="0" style="stop-color:#FFFFFF"/>
					<stop  offset="1" style="stop-color:#9C9C9C"/>
				</linearGradient>
				<path class="st5" d="M916.4,185.5c0.4,0,0.8,0,1.1,0c0.8,0,1.4-0.2,1.7-0.7c0.3-0.4,0.2-0.8-0.3-1.1c-0.3-0.3-0.8-0.4-1.3-0.4
					c-5.5,0-11.1,0-16.6,0c-3.3,0-6.6,0-9.8,0c-1.1,0-2.3,0.1-3.3,0.5c-1.6,0.5-2.7,1.3-3,2.4c-0.2,0.5-0.3,1-0.3,1.5
					c0,15.3,0,30.6,0,45.9c0,0.7,0.2,1.4,0.8,2.1c0.9,1,2.2,1.6,4,1.8c0.8,0.1,1.7,0.2,2.5,0.2c2.9,0,5.8,0,8.7,0
					c5.7,0,11.5,0,17.2,0c1.1,0,1.9-0.7,1.7-1.3c-0.2-0.5-1-0.9-1.9-0.9c-8.5,0-17.1,0-25.6,0c-0.8,0-1.5,0-2.3-0.2
					c-0.8-0.3-1.3-0.7-1.4-1.2c-0.1-0.5-0.1-1-0.1-1.5c0-5.4,0-10.9,0-16.3c0-0.3,0.1-0.3,0.5-0.3c6.4,0,12.8,0,19.3,0
					c0.8,0,1.4-0.3,1.8-0.7c0.3-0.4,0.3-0.9-0.2-1.3c-0.4-0.3-1-0.5-1.7-0.5c-6.4,0-12.8,0-19.1,0c-0.4,0-0.5,0-0.5-0.3
					c0-8.5,0-17,0-25.5c0-0.5,0-1,0.4-1.4c0.4-0.5,1.1-0.8,2-0.8s1.8-0.1,2.8-0.1C901,185.5,908.7,185.5,916.4,185.5L916.4,185.5
					L916.4,185.5z"/>
				
					<linearGradient id="SVGID_5_" gradientUnits="userSpaceOnUse" x1="999.8655" y1="1575.3" x2="999.8655" y2="1629.7" gradientTransform="matrix(1 0 0 1 0 -1392)">
					<stop  offset="0" style="stop-color:#FFFFFF"/>
					<stop  offset="1" style="stop-color:#9C9C9C"/>
				</linearGradient>
				
					<linearGradient id="SVGID_6_" gradientUnits="userSpaceOnUse" x1="999.8655" y1="1573.8" x2="999.8655" y2="1631.2" gradientTransform="matrix(1 0 0 1 0 -1392)">
					<stop  offset="0" style="stop-color:#FFFFFF"/>
					<stop  offset="1" style="stop-color:#9C9C9C"/>
				</linearGradient>
				<path class="st6" d="M1014.2,185.5c0.4,0,0.8,0,1.1,0c0.8,0,1.4-0.2,1.7-0.7c0.3-0.4,0.2-0.8-0.3-1.1c-0.3-0.3-0.8-0.4-1.3-0.4
					c-5.5,0-11.1,0-16.6,0c-3.3,0-6.6,0-9.8,0c-1.1,0-2.3,0.1-3.3,0.5c-1.6,0.5-2.7,1.3-3,2.4c-0.2,0.5-0.3,1-0.3,1.5
					c0,15.3,0,30.6,0,45.9c0,0.7,0.2,1.4,0.8,2.1c0.9,1,2.2,1.6,4,1.8c0.8,0.1,1.7,0.2,2.5,0.2c2.9,0,5.8,0,8.7,0
					c5.7,0,11.5,0,17.2,0c1.1,0,1.9-0.7,1.7-1.3c-0.2-0.5-1-0.9-1.9-0.9c-8.5,0-17.1,0-25.6,0c-0.8,0-1.5,0-2.3-0.2
					c-0.8-0.3-1.3-0.7-1.4-1.2c-0.1-0.5-0.1-1-0.1-1.5c0-5.4,0-10.9,0-16.3c0-0.3,0.1-0.3,0.5-0.3c6.4,0,12.8,0,19.3,0
					c0.8,0,1.4-0.3,1.8-0.7c0.3-0.4,0.3-0.9-0.2-1.3c-0.4-0.3-1-0.5-1.7-0.5c-6.4,0-12.8,0-19.1,0c-0.4,0-0.5,0-0.5-0.3
					c0-8.5,0-17,0-25.5c0-0.5,0-1,0.4-1.4c0.4-0.5,1.1-0.8,2-0.8s1.8-0.1,2.8-0.1C998.7,185.5,1006.4,185.5,1014.2,185.5
					L1014.2,185.5L1014.2,185.5z"/>
				
					<linearGradient id="SVGID_7_" gradientUnits="userSpaceOnUse" x1="950.8141" y1="1575.2556" x2="950.8141" y2="1629.8" gradientTransform="matrix(1 0 0 1 0 -1392)">
					<stop  offset="0" style="stop-color:#FFFFFF"/>
					<stop  offset="1" style="stop-color:#9C9C9C"/>
				</linearGradient>
				
					<linearGradient id="SVGID_8_" gradientUnits="userSpaceOnUse" x1="950.8141" y1="1573.7556" x2="950.8141" y2="1631.3" gradientTransform="matrix(1 0 0 1 0 -1392)">
					<stop  offset="0" style="stop-color:#FFFFFF"/>
					<stop  offset="1" style="stop-color:#9C9C9C"/>
				</linearGradient>
				<path class="st7" d="M937,188.3c0-1.3,0-2.7,0-4c0-0.7-1.1-1.2-2.2-1c-0.8,0.1-1.3,0.6-1.3,1.1c0,3.1,0,6.2,0,9.2
					c0,13.3,0,26.7-0.1,40c0,0.7,0.2,1.4,0.8,2.1c0.9,1,2.1,1.6,3.9,1.9c0.8,0.1,1.7,0.2,2.5,0.2c3,0,6,0,9,0c5.6,0,11.3,0,16.9,0
					c1,0,1.9-0.7,1.7-1.3c-0.2-0.5-1-0.9-1.8-0.9c-8.6,0-17.2,0-25.8,0c-0.8,0-1.6,0-2.3-0.2c-0.8-0.3-1.3-0.7-1.3-1.2
					c-0.1-0.5-0.1-1.1-0.1-1.6c0-5.4,0-10.8,0-16.2c0-0.3,0-0.3,0.5-0.3c6.3,0,12.7,0,19,0c0.8,0,1.4-0.3,1.8-0.7
					c0.3-0.4,0.3-0.9-0.2-1.3c-0.4-0.3-1-0.5-1.6-0.5c-6.3,0-12.6,0-18.9,0c-0.4,0-0.5,0-0.5-0.3c0-6.2,0-12.3,0-18.5
					C937,192.6,937,190.5,937,188.3L937,188.3L937,188.3z"/>
				
					<linearGradient id="SVGID_9_" gradientUnits="userSpaceOnUse" x1="1048.2292" y1="1575.5" x2="1048.2292" y2="1629.9" gradientTransform="matrix(1 0 0 1 0 -1392)">
					<stop  offset="0" style="stop-color:#FFFFFF"/>
					<stop  offset="1" style="stop-color:#9C9C9C"/>
				</linearGradient>
				
					<linearGradient id="SVGID_10_" gradientUnits="userSpaceOnUse" x1="1048.2292" y1="1574" x2="1048.2292" y2="1631.4" gradientTransform="matrix(1 0 0 1 0 -1392)">
					<stop  offset="0" style="stop-color:#FFFFFF"/>
					<stop  offset="1" style="stop-color:#9C9C9C"/>
				</linearGradient>
				<path class="st8" d="M1032.6,184.5c-0.9,0.6-1.5,1.2-1.7,2c-0.1,0.4-0.2,0.8-0.2,1.2c0,15.3,0,30.7,0,46c0,0.7,0.2,1.4,0.8,2.1
					c0.9,1,2.2,1.6,4,1.9c0.8,0.1,1.7,0.2,2.5,0.2c2.8,0,5.6,0,8.3,0c5.8,0,11.7,0,17.5,0c1.1,0,1.9-0.7,1.7-1.3
					c-0.2-0.5-1.1-0.9-1.8-0.9c-8.5,0-17.1,0-25.6,0c-0.8,0-1.6,0-2.3-0.2c-0.8-0.3-1.3-0.7-1.3-1.2c-0.1-0.6-0.1-1.2-0.1-1.8
					c0-14.8,0-29.7,0-44.5c0-0.4,0.1-0.8,0.3-1.2c0.2-0.6,1.1-1,2.1-1s2-0.1,3.1-0.1c8,0,16.1,0,24.1,0c1.1,0,2-0.7,1.7-1.3
					c-0.2-0.5-1.1-0.9-1.8-0.9c-5.5,0-10.9,0-16.4,0c-3.3,0-6.6,0-9.9,0c-1.1,0-2.3,0.1-3.3,0.5
					C1033.5,184,1033.1,184.2,1032.6,184.5L1032.6,184.5L1032.6,184.5z"/>
				
					<linearGradient id="SVGID_11_" gradientUnits="userSpaceOnUse" x1="1098.2999" y1="1575.3556" x2="1098.2999" y2="1629.8445" gradientTransform="matrix(1 0 0 1 0 -1392)">
					<stop  offset="0" style="stop-color:#FFFFFF"/>
					<stop  offset="1" style="stop-color:#9C9C9C"/>
				</linearGradient>
				
					<linearGradient id="SVGID_12_" gradientUnits="userSpaceOnUse" x1="1098.2999" y1="1573.8556" x2="1098.2999" y2="1631.3445" gradientTransform="matrix(1 0 0 1 0 -1392)">
					<stop  offset="0" style="stop-color:#FFFFFF"/>
					<stop  offset="1" style="stop-color:#9C9C9C"/>
				</linearGradient>
				<path class="st9" d="M1112.7,231.4c0,1.8,0,3.6,0,5.4c0,0.7,1,1.2,1.9,1c0.7-0.1,1.1-0.6,1.1-1.1c0-3.4,0-6.7,0-10.1
					c0-10.6,0-21.2-0.1-31.7c0-3.5,0-7,0.1-10.5c0-0.7-1-1.2-1.9-1c-0.7,0.1-1.1,0.6-1.1,1.1c0,3,0,6,0,9c0,3.6,0,7.3-0.1,10.9
					c0,0.2-0.1,0.2-0.3,0.2c-9.3,0-18.7,0-28,0c-0.3,0-0.3-0.1-0.3-0.3c0-6.6,0-13.3,0-19.9c0-0.6-1-1.2-1.9-1
					c-0.8,0.2-1.2,0.5-1.2,1.1c0,3.3,0,6.7,0,10c0,10.6,0,21.2,0.1,31.7c0,3.5,0,7-0.1,10.5c0,0.5,0.4,0.8,0.9,1s1.1,0.1,1.5-0.2
					c0.4-0.2,0.6-0.5,0.6-0.9c0-9.9,0-19.8,0-29.7c0-0.3,0-0.3,0.4-0.3c9.3,0,18.6,0,27.9,0c0.4,0,0.4,0,0.4,0.3c0,7,0,14,0,21.1
					C1112.6,229.1,1112.6,230.2,1112.7,231.4L1112.7,231.4L1112.7,231.4z"/>
				
					<linearGradient id="SVGID_13_" gradientUnits="userSpaceOnUse" x1="1149.3284" y1="1575.5555" x2="1149.3284" y2="1629.8445" gradientTransform="matrix(1 0 0 1 0 -1392)">
					<stop  offset="0" style="stop-color:#FFFFFF"/>
					<stop  offset="1" style="stop-color:#9C9C9C"/>
				</linearGradient>
				
					<linearGradient id="SVGID_14_" gradientUnits="userSpaceOnUse" x1="1149.3284" y1="1574.0555" x2="1149.3284" y2="1631.3445" gradientTransform="matrix(1 0 0 1 0 -1392)">
					<stop  offset="0" style="stop-color:#FFFFFF"/>
					<stop  offset="1" style="stop-color:#9C9C9C"/>
				</linearGradient>
				<path class="st10" d="M1131.7,231.7c0,1.7,0,3.4,0,5.1c0,0.7,1,1.2,2,1c0.7-0.1,1.2-0.6,1.2-1.1c0-10.9,0-21.9,0-32.8v-0.1
					c0-0.2,0-0.2,0.2-0.1c0.7,0.2,1.5,0.4,2.2,0.7c0.7,0.2,1.3,0.4,2,0.6c0.8,0.2,1.5,0.5,2.3,0.7s1.5,0.5,2.3,0.7s1.5,0.4,2.3,0.7
					c0.4,0.1,0.8,0.3,1.3,0.4c0.2,0.1,0.3,0.2,0.4,0.3c0.4,1.1,0.9,2.2,1.3,3.3c0.5,1.2,0.9,2.3,1.4,3.5c0.4,1.1,0.9,2.2,1.3,3.3
					s0.9,2.1,1.3,3.2c0.4,1,0.8,2.1,1.2,3.1c0.4,1.1,0.9,2.2,1.3,3.4c0.3,0.8,0.7,1.6,1,2.5c0.4,1,0.8,1.9,1.1,2.9
					c0.3,0.6,0.5,1.3,0.8,1.9c0.3,0.7,0.6,1.4,0.9,2.1c0.2,0.4,0.7,0.8,1.6,0.8c1,0,1.6-0.6,1.5-1.2c0-0.3-0.2-0.6-0.3-0.9
					c-0.3-0.7-0.6-1.5-0.9-2.2c-0.4-1.1-0.9-2.2-1.3-3.3c-0.2-0.6-0.5-1.2-0.7-1.8c-0.4-0.9-0.7-1.8-1-2.7c-0.2-0.6-0.5-1.2-0.7-1.8
					c-0.3-0.8-0.6-1.6-0.9-2.4c-0.2-0.6-0.5-1.2-0.7-1.8c-0.3-0.9-0.7-1.7-1-2.6c-0.4-1-0.8-2-1.2-3c-0.2-0.6-0.5-1.2-0.7-1.8
					c-0.3-0.8-0.7-1.6-1-2.5c-0.4-1.1-0.9-2.2-1.3-3.4c-0.2-0.5-0.7-0.8-1.3-0.9h-0.1c-0.4-0.1-0.4-0.1-0.2-0.4c1-1.2,2-2.3,3.1-3.5
					c0.8-0.9,1.6-1.8,2.4-2.7c1-1.2,2.1-2.3,3.1-3.5c1-1.1,2-2.2,3-3.4c0.9-1,1.7-1.9,2.6-2.9s1.7-2,2.6-2.9
					c0.2-0.2,0.4-0.4,0.6-0.6c0.6-0.7,0.1-1.6-1-1.8c-0.7-0.1-1.4,0-1.9,0.6c-1.1,1.3-2.3,2.6-3.4,3.9c-0.7,0.8-1.4,1.6-2.2,2.5
					c-1,1.1-2,2.3-3,3.4c-0.7,0.8-1.4,1.5-2.1,2.3c-1,1.1-1.9,2.2-2.9,3.3c-0.6,0.7-1.2,1.3-1.8,2c-0.7,0.8-1.5,1.7-2.2,2.5
					c-0.2,0.2-0.3,0.3-0.7,0.1c-0.9-0.3-1.8-0.5-2.7-0.8c-0.8-0.2-1.5-0.5-2.3-0.7s-1.5-0.5-2.3-0.7c-0.7-0.2-1.3-0.4-2-0.6
					c-0.2-0.1-0.5-0.2-0.7-0.2c-0.3,0-0.4-0.2-0.4-0.4c0-3.4,0-6.7,0-10.1c0-2.1,0-4.2,0-6.3c0-0.7-1-1.2-2-1
					c-0.7,0.1-1.2,0.6-1.2,1.1C1131.7,200.2,1131.7,215.9,1131.7,231.7L1131.7,231.7L1131.7,231.7z"/>
				
					<linearGradient id="SVGID_15_" gradientUnits="userSpaceOnUse" x1="1197.1501" y1="1575.389" x2="1197.1501" y2="1629.8251" gradientTransform="matrix(1 0 0 1 0 -1392)">
					<stop  offset="0" style="stop-color:#FFFFFF"/>
					<stop  offset="1" style="stop-color:#9C9C9C"/>
				</linearGradient>
				
					<linearGradient id="SVGID_16_" gradientUnits="userSpaceOnUse" x1="1197.1501" y1="1573.889" x2="1197.1501" y2="1631.3251" gradientTransform="matrix(1 0 0 1 0 -1392)">
					<stop  offset="0" style="stop-color:#FFFFFF"/>
					<stop  offset="1" style="stop-color:#9C9C9C"/>
				</linearGradient>
				<path class="st11" d="M1182.7,195L1182.7,195c0,3.1,0,6.2,0,9.3c0,0.2,0,0.3,0.3,0.3c9.4,0,18.8,0,28.2,0c0.2,0,0.3-0.1,0.3-0.2
					c0-1.3,0.1-2.6,0.1-3.9c0-5.3,0-10.6,0-15.9c0-0.6,0.7-1.2,1.6-1.2c0.7,0,1.3,0.5,1.3,1c0,3-0.1,6-0.1,9.1c0,13.5,0,27.1,0,40.6
					c0,0.3-0.1,0.6-0.2,0.9c-0.2,0.5-0.5,1-1,1.4c-0.4,0.4-0.9,0.7-1.5,0.9c-1,0.4-2,0.5-3.1,0.5c-2.1,0-4.2,0-6.2,0
					c-5.9,0-11.8,0.1-17.7-0.1c-0.4,0-0.8-0.1-1.1-0.1c-1-0.2-1.9-0.6-2.5-1.2c-0.8-0.7-1.2-1.5-1.2-2.3c0-6.2-0.1-12.3-0.1-18.5
					c0-10.4,0-20.7,0-31.1c0-0.6,0.7-1.2,1.6-1.1c0.7,0,1.5,0.6,1.5,1.1C1182.7,187.9,1182.7,191.4,1182.7,195L1182.7,195z
					 M1206.4,206.7L1206.4,206.7c-7.7,0-15.4,0-23.1,0c-0.5,0-0.5,0-0.5,0.4c0,8.8,0,17.6,0,26.4c0,0.4,0.1,0.8,0.3,1.3
					c0.2,0.5,0.8,0.8,1.5,0.9c1.2,0.1,2.4,0.1,3.5,0.1c2.7,0,5.4,0,8,0c2.9,0,5.9,0,8.8,0c1.4,0,2.9,0,4.3,0c1.1,0,2-0.5,2.3-1.3
					c0-0.1,0-0.3,0.1-0.5c0-0.3,0.1-0.7,0.1-1c0-8.6,0-17.3,0-25.9c0-0.2-0.1-0.3-0.4-0.3C1209.6,206.7,1208,206.7,1206.4,206.7
					L1206.4,206.7z"/>
			</g>
			<g>
				
					<linearGradient id="SVGID_17_" gradientUnits="userSpaceOnUse" x1="908.7" y1="1635.1" x2="908.7" y2="1637.3" gradientTransform="matrix(1 0 0 1 0 -1392)">
					<stop  offset="0" style="stop-color:#FFFFFF"/>
					<stop  offset="1" style="stop-color:#9C9C9C"/>
				</linearGradient>
				
					<linearGradient id="SVGID_18_" gradientUnits="userSpaceOnUse" x1="908.7" y1="1633.6" x2="908.7" y2="1638.8" gradientTransform="matrix(1 0 0 1 0 -1392)">
					<stop  offset="0" style="stop-color:#FFFFFF"/>
					<stop  offset="1" style="stop-color:#9C9C9C"/>
				</linearGradient>
				<ellipse class="st12" cx="908.7" cy="244.2" rx="1.8" ry="1.1"/>
				
					<linearGradient id="SVGID_19_" gradientUnits="userSpaceOnUse" x1="895.3" y1="1635.1" x2="895.3" y2="1637.3" gradientTransform="matrix(1 0 0 1 0 -1392)">
					<stop  offset="0" style="stop-color:#FFFFFF"/>
					<stop  offset="1" style="stop-color:#9C9C9C"/>
				</linearGradient>
				
					<linearGradient id="SVGID_20_" gradientUnits="userSpaceOnUse" x1="895.3" y1="1633.6" x2="895.3" y2="1638.8" gradientTransform="matrix(1 0 0 1 0 -1392)">
					<stop  offset="0" style="stop-color:#FFFFFF"/>
					<stop  offset="1" style="stop-color:#9C9C9C"/>
				</linearGradient>
				<ellipse class="st13" cx="895.3" cy="244.2" rx="1.8" ry="1.1"/>
			</g>
		</g>
	</g>
</g>
</svg>
