<?xml version="1.0" encoding="utf-8"?>
<!-- Generator: Adobe Illustrator 23.0.1, SVG Export Plug-In . SVG Version: 6.00 Build 0)  -->
<svg version="1.1" id="Слой_1" xmlns="http://www.w3.org/2000/svg" xmlns:xlink="http://www.w3.org/1999/xlink" x="0px" y="0px"
	 viewBox="0 0 987.5 324.1" style="enable-background:new 0 0 987.5 324.1;" xml:space="preserve">
<style type="text/css">
	.st0{fill:none;stroke:#FF355D;stroke-width:5;stroke-miterlimit:10;}
	.st1{fill:#FFFFFF;stroke:#FFFFFF;stroke-width:8;stroke-miterlimit:10;}
	.st2{fill:#FFFFFF;stroke:#FFFFFF;stroke-width:4;stroke-miterlimit:10;}
	.st3{fill:#DBDBDB;}
	.st4{fill:#FFFFFF;}
</style>
<title>lefechkablog</title>
<line class="st0" x1="203.3" y1="162.1" x2="978.5" y2="162.1"/>
<g>
	<path class="st1" d="M544.2,306.9c0.9,0,1.7,0,2.5,0c1.8,0,3,0.5,3.7,1.4c0.6,0.9,0.4,1.7-0.6,2.5c-0.8,0.6-1.7,0.9-2.8,0.9
		c-11.9,0-23.7,0-35.6,0c-7,0-14.1,0-21.1-0.1c-2.5,0-4.9-0.3-7.2-1.1c-3.4-1.2-5.7-2.9-6.5-5.4c-0.4-1.2-0.6-2.3-0.6-3.4
		c0-33.8,0-67.5,0-101.3c0-1.6,0.4-3.2,1.7-4.6c1.9-2.1,4.7-3.5,8.6-4c1.8-0.2,3.6-0.4,5.4-0.4c6.2,0,12.4,0,18.6,0
		c12.3,0,24.6-0.1,36.9-0.1c2.3,0,4.1,1.5,3.6,2.9c-0.4,1.2-2.3,1.9-4,1.9c-18.3,0-36.6,0-55,0c-1.6,0-3.3,0-4.8,0.5
		c-1.8,0.6-2.8,1.5-3,2.7c-0.1,1.2-0.3,2.3-0.3,3.4c0,12,0,23.9,0,35.9c0,0.6,0.2,0.7,1,0.7c13.8,0,27.6,0,41.4,0
		c1.8,0,3.1,0.6,3.8,1.6s0.6,2-0.5,2.8c-0.9,0.8-2.1,1.1-3.6,1.1c-13.7,0-27.4,0-41.1,0c-0.9,0-1,0-1,0.7c0,18.8,0,37.4,0,56.2
		c0,1.1-0.1,2.2,0.8,3.2c0.9,1.1,2.4,1.8,4.3,1.9c2,0.1,3.9,0.2,5.9,0.2C511,306.9,527.6,306.9,544.2,306.9L544.2,306.9L544.2,306.9
		z"/>
	<path class="st1" d="M386.1,300.7c0,2.9,0,5.8,0,8.7c0,1.6-2.4,2.6-4.7,2.2c-1.6-0.3-2.8-1.3-2.8-2.3c0-6.8,0-13.6,0-20.4
		c0-29.5-0.1-58.8-0.1-88.3c0-1.6,0.4-3.2,1.7-4.6c1.9-2.1,4.6-3.5,8.4-4.1c1.8-0.3,3.6-0.4,5.4-0.4c6.4,0,12.9,0,19.3,0
		c12.1,0,24.3-0.1,36.4-0.1c2.2,0,4.1,1.5,3.6,2.9c-0.4,1.2-2.2,1.9-3.9,1.9c-18.4,0-36.9,0-55.3,0c-1.6,0-3.3,0-4.8,0.5
		c-1.7,0.6-2.7,1.5-2.9,2.7c-0.1,1.2-0.3,2.3-0.3,3.5c0,11.9,0,23.8,0,35.7c0,0.6,0,0.6,1,0.6c13.6,0,27.2,0,40.9,0
		c1.8,0,3,0.6,3.8,1.6c0.7,1,0.6,2-0.5,2.8c-0.9,0.8-2.1,1.1-3.5,1.1c-13.5,0-27.1,0-40.6,0c-0.9,0-1,0-1,0.6c0,13.6,0,27.2,0,40.8
		C385.9,291.1,386,295.9,386.1,300.7L386.1,300.7L386.1,300.7z"/>
	<path class="st1" d="M580.6,309.2c-2-1.2-3.3-2.7-3.7-4.4c-0.2-0.9-0.4-1.8-0.4-2.6c0-33.8,0-67.6,0-101.4c0-1.6,0.4-3.2,1.7-4.6
		c1.9-2.2,4.7-3.5,8.5-4.1c1.8-0.2,3.6-0.4,5.4-0.4c6,0,11.9,0,17.9,0c12.5,0,25.1-0.1,37.6-0.1c2.3,0,4.1,1.5,3.6,2.9
		c-0.4,1.2-2.3,1.9-4,1.9c-18.3,0-36.7,0-55,0c-1.7,0-3.4,0-5,0.5c-1.7,0.6-2.7,1.5-2.9,2.7s-0.3,2.7-0.3,4c0,32.7,0,65.4,0,98.2
		c0,1,0.2,1.9,0.6,2.7c0.5,1.2,2.5,2.2,4.6,2.3c2.2,0.1,4.4,0.2,6.5,0.2c17.3,0,34.5,0,51.8,0c2.3,0,4.2,1.5,3.6,2.9
		c-0.4,1.2-2.3,1.9-3.9,1.9c-11.7,0-23.5,0-35.2,0c-7.1,0-14.2,0-21.3-0.1c-2.4,0-4.9-0.3-7.1-1.1
		C582.6,310.2,581.6,309.6,580.6,309.2L580.6,309.2L580.6,309.2z"/>
	<path class="st1" d="M748.2,205.7c0-3.9,0-7.9,0-11.9c0-1.6,2.1-2.6,4.1-2.3c1.4,0.3,2.4,1.3,2.4,2.3c0,7.4,0,14.8,0,22.2
		c0,23.4-0.1,46.6-0.1,70c0,7.7,0.1,15.5,0.1,23.2c0,1.6-2.1,2.6-4.1,2.3c-1.4-0.3-2.4-1.3-2.3-2.3c0-6.6,0-13.2,0-19.8
		c0-7.9-0.1-16.1-0.1-24c0-0.4-0.2-0.6-0.7-0.6c-20.1,0-40.1,0-60.2,0c-0.6,0-0.7,0.2-0.7,0.6c0,14.7,0,29.3,0,43.9
		c0,1.4-2.1,2.7-4,2.3c-1.7-0.4-2.6-1.2-2.6-2.4c0-7.4,0-14.7,0-22.1c0-23.4,0.1-46.6,0.1-70c0-7.7-0.1-15.4-0.1-23.2
		c0-1.1,0.8-1.8,2-2.2c1.1-0.4,2.3-0.3,3.3,0.4c0.9,0.5,1.3,1.2,1.3,2c0,21.8,0,43.6,0,65.5c0,0.6,0,0.7,0.8,0.7c20,0,40,0,59.9,0
		c0.8,0,0.8,0,0.8-0.6c0-15.5,0-30.9,0-46.4C748.1,210.7,748.1,208.3,748.2,205.7L748.2,205.7L748.2,205.7z"/>
	<path class="st1" d="M786.5,205.1c0-3.7,0-7.5,0-11.2c0-1.6,2.2-2.7,4.2-2.3c1.5,0.3,2.5,1.4,2.5,2.4c0,24.1,0,48.2,0,72.3
		c0,0.1,0,0.1,0,0.2c0,0.4,0,0.4,0.5,0.2c1.5-0.6,3.1-1.1,4.7-1.5c1.4-0.5,2.9-0.9,4.3-1.3c1.6-0.5,3.2-1.1,4.9-1.5
		c1.7-0.5,3.3-1.1,5-1.5c1.6-0.5,3.3-1,4.9-1.5c0.9-0.3,1.8-0.6,2.7-0.9c0.5-0.1,0.7-0.4,0.9-0.8c1-2.4,1.9-4.9,2.9-7.4s2-5.1,3-7.7
		c1-2.4,1.9-4.9,2.9-7.4c0.9-2.3,1.8-4.7,2.7-7s1.7-4.6,2.6-6.9c0.9-2.4,1.9-5,2.9-7.4c0.7-1.8,1.4-3.6,2.2-5.5
		c0.8-2.2,1.6-4.2,2.4-6.4c0.5-1.4,1.1-2.8,1.6-4.2c0.6-1.6,1.2-3.2,1.8-4.7c0.4-0.9,1.4-1.8,3.4-1.8c2.2,0,3.4,1.4,3.3,2.6
		c-0.1,0.7-0.5,1.4-0.7,2.1c-0.6,1.6-1.2,3.3-1.9,4.9c-0.9,2.4-1.9,4.9-2.9,7.4c-0.5,1.3-1.1,2.7-1.6,4c-0.8,2-1.5,3.9-2.2,5.9
		c-0.5,1.3-1.1,2.6-1.6,4c-0.7,1.8-1.3,3.4-2,5.3c-0.5,1.3-1.1,2.7-1.6,4c-0.8,1.9-1.5,3.7-2.2,5.7c-0.8,2.2-1.6,4.4-2.5,6.6
		c-0.5,1.3-1.1,2.7-1.6,4c-0.7,1.8-1.4,3.6-2.1,5.5c-1,2.4-1.9,5-2.9,7.4c-0.4,1.1-1.4,1.7-2.7,2.1c-0.1,0-0.1,0-0.2,0.1
		c-0.9,0.3-0.9,0.3-0.4,1c2.2,2.5,4.4,5.2,6.6,7.7c1.7,2,3.4,3.9,5.1,5.8c2.2,2.5,4.4,5.2,6.6,7.7c2.1,2.4,4.3,5,6.4,7.4
		c1.8,2.2,3.7,4.3,5.5,6.4c1.9,2.2,3.7,4.3,5.5,6.5c0.4,0.5,0.9,1,1.3,1.4c1.3,1.5,0.3,3.5-2.1,4c-1.6,0.3-3.1-0.1-4.2-1.4
		c-2.5-2.8-4.9-5.7-7.4-8.5c-1.6-1.8-3.1-3.5-4.6-5.5c-2.1-2.5-4.3-5-6.4-7.5c-1.5-1.7-3-3.4-4.5-5.2c-2.1-2.4-4.1-4.8-6.1-7.2
		c-1.3-1.5-2.6-2.9-3.8-4.4c-1.6-1.8-3.1-3.6-4.7-5.5c-0.5-0.6-0.6-0.6-1.4-0.3c-1.9,0.6-3.8,1.2-5.8,1.8c-1.6,0.5-3.2,1.1-4.9,1.5
		c-1.6,0.5-3.2,1.1-4.9,1.5c-1.4,0.5-2.9,0.9-4.3,1.3c-0.5,0.2-1,0.4-1.6,0.5c-0.7,0.1-0.8,0.4-0.8,0.9c0,7.4,0,14.8,0,22.3
		c0,4.6,0,9.3,0,13.9c0,1.6-2.2,2.6-4.2,2.3c-1.5-0.3-2.5-1.4-2.5-2.4C786.5,274.6,786.5,239.9,786.5,205.1L786.5,205.1L786.5,205.1
		z"/>
	<path class="st1" d="M893.1,286c0,7.9,0,15.7,0,23.5c0,1-1.6,2.3-3.1,2.3c-1.8,0-3.4-1.3-3.4-2.5c0-22.9,0-45.8,0-68.6
		c0-13.6,0.1-27.1,0.1-40.7c0-1.9,0.9-3.6,2.6-5.2c1.5-1.3,3.2-2.3,5.5-2.7c0.8-0.2,1.6-0.3,2.4-0.3c12.7-0.5,25.4-0.1,38.1-0.2
		c4.5,0,8.9,0,13.4,0c2.4,0,4.6,0.4,6.7,1.2c1.3,0.6,2.3,1.2,3.3,2.1c1.1,1,1.8,2,2.1,3.1c0.2,0.7,0.4,1.4,0.4,2.1
		c0,29.8,0,59.8,0,89.5c0,6.7,0.1,13.3,0.1,20c0,1.1-1.4,2-2.9,2.1c-2,0.2-3.5-1.2-3.5-2.5c0-11.7,0-23.4,0-35
		c0-2.9-0.1-5.7-0.1-8.6c0-0.4-0.2-0.5-0.7-0.5c-20.2,0-40.3,0-60.5,0c-0.6,0-0.7,0.3-0.7,0.6C893.1,272.4,893.1,279.1,893.1,286
		L893.1,286L893.1,286z M943.9,260.2c3.4,0,6.8,0,10.2,0c0.7,0,0.9-0.2,0.9-0.7c0-19.1,0-38.1,0-57.3c0-0.8-0.1-1.5-0.1-2.2
		c0-0.4,0-0.7-0.1-1.1c-0.5-1.9-2.6-2.8-4.9-2.9c-3.1-0.1-6.1-0.1-9.2-0.1c-6.3,0-12.6,0.1-18.9,0.1c-5.7,0-11.5,0-17.2,0
		c-2.5,0-5.1,0-7.6,0.3c-1.4,0.2-2.9,1-3.2,1.9c-0.3,1-0.6,1.9-0.6,2.7c0,19.4,0,38.9,0,58.1c0,0.8,0.1,0.9,1.1,0.9
		C910.8,260.2,927.3,260.2,943.9,260.2L943.9,260.2L943.9,260.2z"/>
	<path class="st1" d="M349.7,306.9c0.9,0,1.7,0,2.5,0c1.8,0,3,0.5,3.7,1.4c0.6,0.9,0.4,1.7-0.6,2.5c-0.8,0.6-1.7,0.9-2.8,0.9
		c-11.9,0-23.7,0-35.6,0c-7,0-14.1,0-21.1-0.1c-2.5,0-4.9-0.3-7.2-1.1c-3.4-1.2-5.7-2.9-6.5-5.4c-0.4-1.2-0.6-2.3-0.6-3.4
		c0-33.8,0-67.5,0-101.3c0-1.6,0.4-3.2,1.7-4.6c1.9-2.1,4.7-3.5,8.6-4c1.8-0.2,3.6-0.4,5.4-0.4c6.2,0,12.4,0,18.6,0
		c12.3,0,24.6-0.1,36.9-0.1c2.3,0,4.1,1.5,3.6,2.9c-0.4,1.2-2.3,1.9-4,1.9c-18.3,0-36.6,0-55,0c-1.6,0-3.3,0-4.8,0.5
		c-1.8,0.6-2.8,1.5-3,2.7c-0.1,1.2-0.3,2.3-0.3,3.4c0,12,0,23.9,0,35.9c0,0.6,0.2,0.7,1,0.7c13.8,0,27.6,0,41.4,0
		c1.8,0,3.1,0.6,3.8,1.6c0.7,1,0.6,2-0.5,2.8c-0.9,0.8-2.1,1.1-3.6,1.1c-13.7,0-27.4,0-41.1,0c-0.9,0-1,0-1,0.7
		c0,18.8,0,37.4,0,56.2c0,1.1-0.1,2.2,0.8,3.2c0.9,1.1,2.4,1.8,4.3,1.9c2,0.1,3.9,0.2,5.9,0.2C316.5,306.9,333.1,306.9,349.7,306.9
		L349.7,306.9L349.7,306.9z"/>
	<g>
		<path class="st2" d="M331.3,184.2c2.6,0,4.8-1.2,4.8-2.7s-2.1-2.7-4.8-2.7c-2.6,0-4.8,1.2-4.8,2.7S328.7,184.2,331.3,184.2
			L331.3,184.2L331.3,184.2z"/>
		<path class="st2" d="M311.1,184.3c2.6,0,4.8-1.2,4.8-2.7s-2.1-2.7-4.8-2.7s-4.8,1.2-4.8,2.7C306.3,183,308.5,184.3,311.1,184.3
			L311.1,184.3L311.1,184.3z"/>
	</g>
</g>
<g>
	<g>
		<g>
			<path class="st3" d="M759.1,122.7c-40,0-80,0-120,0c-5.7,0-11.3,0-17,0c2.5,2.3,5.1,4.7,7.6,7c0-33,0-66.3,0-99.3
				c0-4.8,0-9.6,0-14.1c-2.5,2.3-5.1,4.7-7.6,7c40,0,80,0,120,0c5.7,0,11.3,0,17,0c-2.5-2.3-5.1-4.7-7.6-7c0,33,0,66.3,0,99.3
				c0,4.8,0,9.6,0,14.1c0,9,15.2,9.1,15.2,0c0-33,0-66.3,0-99.3c0-4.8,0-9.6,0-14.1c0-3.7-3.5-7-7.6-7c-40,0-80,0-120,0
				c-5.7,0-11.3,0-17,0c-4.1,0-7.6,3.2-7.6,7c0,33,0,66.3,0,99.3c0,4.8,0,9.6,0,14.1c0,3.7,3.5,7,7.6,7c40,0,80,0,120,0
				c5.7,0,11.3,0,17,0C768.9,136.6,768.9,122.7,759.1,122.7z"/>
		</g>
	</g>
	<g>
		<g>
			<g>
				<path class="st3" d="M478.1,23.1c23.9,0,47.9,0,71.9,0c9.8,0,9.9-13.9,0-13.9c-23.9,0-47.9,0-71.9,0
					C468.3,9.2,468.3,23.1,478.1,23.1c23.9,0,47.9,0,71.9,0c9.8,0,9.9-13.9,0-13.9c-23.9,0-47.9,0-71.9,0
					C468.3,9.2,468.3,23.1,478.1,23.1z"/>
			</g>
		</g>
		<g>
			<g>
				<path class="st3" d="M557.5,129.8c0-33.1,0-66.5,0-99.6c0-4.7,0-9.5,0-14c0-9-15.2-9.1-15.2,0c0,33.1,0,66.5,0,99.6
					c0,4.7,0,9.5,0,14C542.3,138.9,557.5,138.9,557.5,129.8c0-33.1,0-66.5,0-99.6c0-4.7,0-9.5,0-14c0-9-15.2-9.1-15.2,0
					c0,33.1,0,66.5,0,99.6c0,4.7,0,9.5,0,14C542.3,138.9,557.5,138.9,557.5,129.8z"/>
			</g>
		</g>
		<g>
			<g>
				<path class="st3" d="M416.3,133.4c19.6-33,39.4-66,59-99.1c2.7-4.7,5.6-9.4,8.3-13.9c4.7-7.9-8.4-15-13.2-7.1
					c-19.6,33-39.4,66-59,99.1c-2.7,4.7-5.6,9.4-8.3,13.9C398.5,134.2,411.7,141.3,416.3,133.4c19.6-33,39.4-66,59-99.1
					c2.7-4.7,5.6-9.4,8.3-13.9c4.7-7.9-8.4-15-13.2-7.1c-19.6,33-39.4,66-59,99.1c-2.7,4.7-5.6,9.4-8.3,13.9
					C398.5,134.2,411.7,141.3,416.3,133.4z"/>
			</g>
		</g>
	</g>
	<g>
		<g>
			<g>
				<path class="st3" d="M842.5,130.1c0-33.1,0-66.5,0-99.6c0-4.7,0-9.5,0-14c0-9-15.2-9.1-15.2,0c0,33.1,0,66.5,0,99.6
					c0,4.7,0,9.5,0,14C827.2,139.1,842.5,139.2,842.5,130.1c0-33.1,0-66.5,0-99.6c0-4.7,0-9.5,0-14c0-9-15.2-9.1-15.2,0
					c0,33.1,0,66.5,0,99.6c0,4.7,0,9.5,0,14C827.2,139.1,842.5,139.2,842.5,130.1z"/>
			</g>
		</g>
		<g>
			<g>
				<path class="st3" d="M835.1,23.3c40,0,80,0,120,0c5.7,0,11.3,0,17,0c9.8,0,9.9-13.9,0-13.9c-40,0-80,0-120,0c-5.7,0-11.3,0-17,0
					C825.3,9.4,825.3,23.3,835.1,23.3c40,0,80,0,120,0c5.7,0,11.3,0,17,0c9.8,0,9.9-13.9,0-13.9c-40,0-80,0-120,0
					c-5.7,0-11.3,0-17,0C825.3,9.4,825.3,23.3,835.1,23.3z"/>
			</g>
		</g>
	</g>
	<g>
		<g>
			<g>
				<path class="st3" d="M221.8,130.1c0-33.1,0-66.5,0-99.6c0-4.7,0-9.5,0-14c0-9-15.2-9.1-15.2,0c0,33.1,0,66.5,0,99.6
					c0,4.7,0,9.5,0,14C206.6,139.1,221.8,139.2,221.8,130.1c0-33.1,0-66.5,0-99.6c0-4.7,0-9.5,0-14c0-9-15.2-9.1-15.2,0
					c0,33.1,0,66.5,0,99.6c0,4.7,0,9.5,0,14C206.6,139.1,221.8,139.2,221.8,130.1z"/>
			</g>
		</g>
		<g>
			<g>
				<path class="st3" d="M214.5,23.3c40,0,80,0,120,0c5.7,0,11.3,0,17,0c9.8,0,9.9-13.9,0-13.9c-40,0-80,0-120,0c-5.7,0-11.3,0-17,0
					C204.6,9.4,204.6,23.3,214.5,23.3c40,0,80,0,120,0c5.7,0,11.3,0,17,0c9.8,0,9.9-13.9,0-13.9c-40,0-80,0-120,0
					c-5.7,0-11.3,0-17,0C204.6,9.4,204.6,23.3,214.5,23.3z"/>
			</g>
		</g>
		<g>
			<g>
				<path class="st3" d="M351.8,123.1c-40,0-80,0-120,0c-5.7,0-11.3,0-17,0c2.5,2.3,5.1,4.7,7.6,7c0-22.4,0-44.8,0-67.2
					c-2.5,2.3-5.1,4.7-7.6,7c40,0,80,0,120,0c5.7,0,11.3,0,17,0c-2.5-2.3-5.1-4.7-7.6-7c0,22.4,0,44.8,0,67.2c0,9,15.2,9.1,15.2,0
					c0-22.4,0-44.8,0-67.2c0-3.7-3.5-7-7.6-7c-40,0-80,0-120,0c-5.7,0-11.3,0-17,0c-4.1,0-7.6,3.2-7.6,7c0,22.4,0,44.8,0,67.2
					c0,3.7,3.5,7,7.6,7c40,0,80,0,120,0c5.7,0,11.3,0,17,0C361.6,137,361.6,123.1,351.8,123.1z"/>
			</g>
		</g>
	</g>
</g>
<g>
	<g>
		<g>
			<path class="st4" d="M69.3,19.7c0,32.2,0,64.3,0.1,96.5c0,50.9,0.1,101.8,0.1,152.7c0,11.8,0,23.5,0,35.3c0,15.4,24,15.5,24,0
				c0-32.2,0-64.3-0.1-96.5c0-50.9-0.1-101.8-0.1-152.7c0-11.8,0-23.5,0-35.3C93.3,4.3,69.3,4.3,69.3,19.7L69.3,19.7z"/>
		</g>
	</g>
	<g>
		<g>
			<path class="st4" d="M247.1,292.2c-25.3,0-50.7,0.1-76,0.1c-40.3,0.1-80.7,0.1-121,0.2c-9.2,0-18.4,0-27.6,0
				c-15.4,0-15.5,24,0,24c25.3,0,50.7-0.1,76-0.1c40.3-0.1,80.7-0.1,121-0.2c9.2,0,18.4,0,27.6,0
				C262.5,316.2,262.5,292.2,247.1,292.2L247.1,292.2z"/>
		</g>
	</g>
	<g>
		<g>
			<path class="st4" d="M140.3,7.6C106,7.8,71.6,8,37.3,8.2c-4.9,0-9.7,0.1-14.6,0.1c-15.4,0.1-15.5,24.1,0,24
				c34.3-0.2,68.7-0.4,103-0.6c4.9,0,9.7-0.1,14.6-0.1C155.7,31.5,155.8,7.5,140.3,7.6L140.3,7.6z"/>
		</g>
	</g>
	<g>
		<g>
			<path class="st4" d="M260,303.5c-0.2-31.3-0.4-62.5-0.5-93.8c0-4.4-0.1-8.9-0.1-13.3c-0.1-15.4-24.1-15.5-24,0
				c0.2,31.3,0.4,62.5,0.5,93.8c0,4.4,0.1,8.9,0.1,13.3C236.1,318.9,260.1,319,260,303.5L260,303.5z"/>
		</g>
	</g>
</g>
</svg>
