<?xml version="1.0" standalone="no"?>
<!DOCTYPE svg PUBLIC "-//W3C//DTD SVG 20010904//EN"
 "http://www.w3.org/TR/2001/REC-SVG-20010904/DTD/svg10.dtd">
<svg version="1.0" xmlns="http://www.w3.org/2000/svg"
 width="20.000000pt" viewBox="0 0 1191.000000 1191.000000"
 preserveAspectRatio="xMidYMid meet">
<g transform="translate(0.000000,1191.000000) scale(0.100000,-0.100000)"
fill="#ffffff" stroke="none">
<path d="M5903 11618 c-5 -7 -83 -227 -172 -488 -274 -798 -859 -2497 -1041
-3020 -95 -272 -186 -537 -203 -587 l-31 -93 -2202 0 c-1211 0 -2209 -3 -2218
-6 -9 -3 -16 -12 -16 -20 0 -8 213 -184 473 -391 259 -207 812 -647 1227 -978
415 -331 994 -792 1285 -1024 292 -233 531 -428 533 -434 1 -7 -132 -462 -297
-1012 -164 -550 -442 -1477 -616 -2060 -175 -583 -322 -1077 -328 -1097 -11
-44 -3 -73 18 -65 10 4 2961 2057 3578 2490 l29 20 116 -80 c544 -373 3568
-2426 3579 -2430 29 -11 30 20 6 101 -26 85 -721 2318 -1077 3462 -113 363
-206 665 -205 670 0 8 1040 836 3121 2486 315 250 407 328 405 343 -2 20 -10
20 -2225 23 l-2223 2 -10 28 c-11 29 -406 1148 -1064 3017 -219 622 -402 1136
-408 1143 -5 6 -13 12 -17 12 -4 0 -12 -6 -17 -12z"/>
</g>
</svg>
